%TF.GenerationSoftware,KiCad,Pcbnew,8.0.5*%
%TF.CreationDate,2025-01-23T11:22:37+01:00*%
%TF.ProjectId,PPP_v3_2,5050505f-7633-45f3-922e-6b696361645f,rev?*%
%TF.SameCoordinates,Original*%
%TF.FileFunction,Drillmap*%
%TF.FilePolarity,Positive*%
%FSLAX45Y45*%
G04 Gerber Fmt 4.5, Leading zero omitted, Abs format (unit mm)*
G04 Created by KiCad (PCBNEW 8.0.5) date 2025-01-23 11:22:37*
%MOMM*%
%LPD*%
G01*
G04 APERTURE LIST*
%ADD10C,0.050000*%
%ADD11C,0.200000*%
%ADD12C,0.100000*%
G04 APERTURE END LIST*
D10*
X13549000Y-7400000D02*
X17700000Y-7400000D01*
X17700000Y-10000000D01*
X13549000Y-10000000D01*
X13549000Y-7400000D01*
D11*
D12*
X13975000Y-7525000D02*
X14005000Y-7555000D01*
X14005000Y-7525000D02*
X13975000Y-7555000D01*
X15045000Y-8145000D02*
X15075000Y-8175000D01*
X15075000Y-8145000D02*
X15045000Y-8175000D01*
X15337500Y-7815000D02*
X15367500Y-7845000D01*
X15367500Y-7815000D02*
X15337500Y-7845000D01*
X15535000Y-9713000D02*
X15565000Y-9743000D01*
X15565000Y-9713000D02*
X15535000Y-9743000D01*
X15829000Y-8893000D02*
X15859000Y-8923000D01*
X15859000Y-8893000D02*
X15829000Y-8923000D01*
X15832000Y-8434000D02*
X15862000Y-8464000D01*
X15862000Y-8434000D02*
X15832000Y-8464000D01*
X16210000Y-7647000D02*
X16240000Y-7677000D01*
X16240000Y-7647000D02*
X16210000Y-7677000D01*
X16262000Y-8674000D02*
X16292000Y-8704000D01*
X16292000Y-8674000D02*
X16262000Y-8704000D01*
X16284000Y-8161000D02*
X16314000Y-8191000D01*
X16314000Y-8161000D02*
X16284000Y-8191000D01*
X16284000Y-8258000D02*
X16314000Y-8288000D01*
X16314000Y-8258000D02*
X16284000Y-8288000D01*
X16355000Y-8740000D02*
X16385000Y-8770000D01*
X16385000Y-8740000D02*
X16355000Y-8770000D01*
X16378000Y-8159000D02*
X16408000Y-8189000D01*
X16408000Y-8159000D02*
X16378000Y-8189000D01*
X16378000Y-8256000D02*
X16408000Y-8286000D01*
X16408000Y-8256000D02*
X16378000Y-8286000D01*
X16385000Y-8645000D02*
X16415000Y-8675000D01*
X16415000Y-8645000D02*
X16385000Y-8675000D01*
X16407000Y-7684000D02*
X16437000Y-7714000D01*
X16437000Y-7684000D02*
X16407000Y-7714000D01*
X16407000Y-8033000D02*
X16437000Y-8063000D01*
X16437000Y-8033000D02*
X16407000Y-8063000D01*
X16428000Y-8406000D02*
X16458000Y-8436000D01*
X16458000Y-8406000D02*
X16428000Y-8436000D01*
X16428000Y-8467000D02*
X16458000Y-8497000D01*
X16458000Y-8467000D02*
X16428000Y-8497000D01*
X16430000Y-8526000D02*
X16460000Y-8556000D01*
X16460000Y-8526000D02*
X16430000Y-8556000D01*
X16468000Y-8258000D02*
X16498000Y-8288000D01*
X16498000Y-8258000D02*
X16468000Y-8288000D01*
X16470000Y-8156000D02*
X16500000Y-8186000D01*
X16500000Y-8156000D02*
X16470000Y-8186000D01*
X16470000Y-8643000D02*
X16500000Y-8673000D01*
X16500000Y-8643000D02*
X16470000Y-8673000D01*
X16477000Y-8738000D02*
X16507000Y-8768000D01*
X16507000Y-8738000D02*
X16477000Y-8768000D01*
X16505000Y-8465000D02*
X16535000Y-8495000D01*
X16535000Y-8465000D02*
X16505000Y-8495000D01*
X16506000Y-8404000D02*
X16536000Y-8434000D01*
X16536000Y-8404000D02*
X16506000Y-8434000D01*
X16506000Y-8525000D02*
X16536000Y-8555000D01*
X16536000Y-8525000D02*
X16506000Y-8555000D01*
X16555000Y-8643000D02*
X16585000Y-8673000D01*
X16585000Y-8643000D02*
X16555000Y-8673000D01*
X16563000Y-8156000D02*
X16593000Y-8186000D01*
X16593000Y-8156000D02*
X16563000Y-8186000D01*
X16563000Y-8251000D02*
X16593000Y-8281000D01*
X16593000Y-8251000D02*
X16563000Y-8281000D01*
X16567000Y-7854000D02*
X16597000Y-7884000D01*
X16597000Y-7854000D02*
X16567000Y-7884000D01*
X16586000Y-9566000D02*
X16616000Y-9596000D01*
X16616000Y-9566000D02*
X16586000Y-9596000D01*
X16598000Y-8740000D02*
X16628000Y-8770000D01*
X16628000Y-8740000D02*
X16598000Y-8770000D01*
X16677000Y-7622000D02*
X16707000Y-7652000D01*
X16707000Y-7622000D02*
X16677000Y-7652000D01*
X16794000Y-8107000D02*
X16824000Y-8137000D01*
X16824000Y-8107000D02*
X16794000Y-8137000D01*
X16857000Y-7903000D02*
X16887000Y-7933000D01*
X16887000Y-7903000D02*
X16857000Y-7933000D01*
X16947000Y-7796000D02*
X16977000Y-7826000D01*
X16977000Y-7796000D02*
X16947000Y-7826000D01*
X17154000Y-8453000D02*
X17184000Y-8483000D01*
X17184000Y-8453000D02*
X17154000Y-8483000D01*
X17160000Y-8248000D02*
X17190000Y-8278000D01*
X17190000Y-8248000D02*
X17160000Y-8278000D01*
X17282000Y-9551000D02*
X17312000Y-9581000D01*
X17312000Y-9551000D02*
X17282000Y-9581000D01*
X17340000Y-8722000D02*
X17370000Y-8752000D01*
X17370000Y-8722000D02*
X17340000Y-8752000D01*
X17425000Y-7670000D02*
X17455000Y-7700000D01*
X17455000Y-7670000D02*
X17425000Y-7700000D01*
X17482000Y-8841000D02*
X17512000Y-8871000D01*
X17512000Y-8841000D02*
X17482000Y-8871000D01*
X17530000Y-8698000D02*
X17560000Y-8728000D01*
X17560000Y-8698000D02*
X17530000Y-8728000D01*
X13777000Y-9560000D02*
G75*
G02*
X13677000Y-9560000I-50000J0D01*
G01*
X13677000Y-9560000D02*
G75*
G02*
X13777000Y-9560000I50000J0D01*
G01*
X13777000Y-9814000D02*
G75*
G02*
X13677000Y-9814000I-50000J0D01*
G01*
X13677000Y-9814000D02*
G75*
G02*
X13777000Y-9814000I50000J0D01*
G01*
X17547000Y-9058000D02*
G75*
G02*
X17447000Y-9058000I-50000J0D01*
G01*
X17447000Y-9058000D02*
G75*
G02*
X17547000Y-9058000I50000J0D01*
G01*
X17547000Y-9312000D02*
G75*
G02*
X17447000Y-9312000I-50000J0D01*
G01*
X17447000Y-9312000D02*
G75*
G02*
X17547000Y-9312000I50000J0D01*
G01*
X17547000Y-9566000D02*
G75*
G02*
X17447000Y-9566000I-50000J0D01*
G01*
X17447000Y-9566000D02*
G75*
G02*
X17547000Y-9566000I50000J0D01*
G01*
X17547000Y-9820000D02*
G75*
G02*
X17447000Y-9820000I-50000J0D01*
G01*
X17447000Y-9820000D02*
G75*
G02*
X17547000Y-9820000I50000J0D01*
G01*
D11*
X14506537Y-8589000D02*
X14506537Y-8789000D01*
X14406537Y-8689000D02*
X14606537Y-8689000D01*
X15506537Y-8589000D02*
X15506537Y-8789000D01*
X15406537Y-8689000D02*
X15606537Y-8689000D01*
X13807277Y-10313984D02*
X13807277Y-10113984D01*
X13807277Y-10113984D02*
X13854896Y-10113984D01*
X13854896Y-10113984D02*
X13883467Y-10123508D01*
X13883467Y-10123508D02*
X13902515Y-10142555D01*
X13902515Y-10142555D02*
X13912039Y-10161603D01*
X13912039Y-10161603D02*
X13921562Y-10199698D01*
X13921562Y-10199698D02*
X13921562Y-10228270D01*
X13921562Y-10228270D02*
X13912039Y-10266365D01*
X13912039Y-10266365D02*
X13902515Y-10285412D01*
X13902515Y-10285412D02*
X13883467Y-10304460D01*
X13883467Y-10304460D02*
X13854896Y-10313984D01*
X13854896Y-10313984D02*
X13807277Y-10313984D01*
X14007277Y-10313984D02*
X14007277Y-10180650D01*
X14007277Y-10218746D02*
X14016801Y-10199698D01*
X14016801Y-10199698D02*
X14026324Y-10190174D01*
X14026324Y-10190174D02*
X14045372Y-10180650D01*
X14045372Y-10180650D02*
X14064420Y-10180650D01*
X14131086Y-10313984D02*
X14131086Y-10180650D01*
X14131086Y-10113984D02*
X14121562Y-10123508D01*
X14121562Y-10123508D02*
X14131086Y-10133031D01*
X14131086Y-10133031D02*
X14140610Y-10123508D01*
X14140610Y-10123508D02*
X14131086Y-10113984D01*
X14131086Y-10113984D02*
X14131086Y-10133031D01*
X14254896Y-10313984D02*
X14235848Y-10304460D01*
X14235848Y-10304460D02*
X14226324Y-10285412D01*
X14226324Y-10285412D02*
X14226324Y-10113984D01*
X14359658Y-10313984D02*
X14340610Y-10304460D01*
X14340610Y-10304460D02*
X14331086Y-10285412D01*
X14331086Y-10285412D02*
X14331086Y-10113984D01*
X14588229Y-10313984D02*
X14588229Y-10113984D01*
X14588229Y-10113984D02*
X14654896Y-10256841D01*
X14654896Y-10256841D02*
X14721562Y-10113984D01*
X14721562Y-10113984D02*
X14721562Y-10313984D01*
X14902515Y-10313984D02*
X14902515Y-10209222D01*
X14902515Y-10209222D02*
X14892991Y-10190174D01*
X14892991Y-10190174D02*
X14873943Y-10180650D01*
X14873943Y-10180650D02*
X14835848Y-10180650D01*
X14835848Y-10180650D02*
X14816801Y-10190174D01*
X14902515Y-10304460D02*
X14883467Y-10313984D01*
X14883467Y-10313984D02*
X14835848Y-10313984D01*
X14835848Y-10313984D02*
X14816801Y-10304460D01*
X14816801Y-10304460D02*
X14807277Y-10285412D01*
X14807277Y-10285412D02*
X14807277Y-10266365D01*
X14807277Y-10266365D02*
X14816801Y-10247317D01*
X14816801Y-10247317D02*
X14835848Y-10237793D01*
X14835848Y-10237793D02*
X14883467Y-10237793D01*
X14883467Y-10237793D02*
X14902515Y-10228270D01*
X14997753Y-10180650D02*
X14997753Y-10380650D01*
X14997753Y-10190174D02*
X15016801Y-10180650D01*
X15016801Y-10180650D02*
X15054896Y-10180650D01*
X15054896Y-10180650D02*
X15073943Y-10190174D01*
X15073943Y-10190174D02*
X15083467Y-10199698D01*
X15083467Y-10199698D02*
X15092991Y-10218746D01*
X15092991Y-10218746D02*
X15092991Y-10275889D01*
X15092991Y-10275889D02*
X15083467Y-10294936D01*
X15083467Y-10294936D02*
X15073943Y-10304460D01*
X15073943Y-10304460D02*
X15054896Y-10313984D01*
X15054896Y-10313984D02*
X15016801Y-10313984D01*
X15016801Y-10313984D02*
X14997753Y-10304460D01*
X15178705Y-10294936D02*
X15188229Y-10304460D01*
X15188229Y-10304460D02*
X15178705Y-10313984D01*
X15178705Y-10313984D02*
X15169182Y-10304460D01*
X15169182Y-10304460D02*
X15178705Y-10294936D01*
X15178705Y-10294936D02*
X15178705Y-10313984D01*
X15178705Y-10190174D02*
X15188229Y-10199698D01*
X15188229Y-10199698D02*
X15178705Y-10209222D01*
X15178705Y-10209222D02*
X15169182Y-10199698D01*
X15169182Y-10199698D02*
X15178705Y-10190174D01*
X15178705Y-10190174D02*
X15178705Y-10209222D01*
D12*
X13516500Y-10627500D02*
X13546500Y-10657500D01*
X13546500Y-10627500D02*
X13516500Y-10657500D01*
D11*
X13845372Y-10533984D02*
X13864420Y-10533984D01*
X13864420Y-10533984D02*
X13883467Y-10543508D01*
X13883467Y-10543508D02*
X13892991Y-10553031D01*
X13892991Y-10553031D02*
X13902515Y-10572079D01*
X13902515Y-10572079D02*
X13912039Y-10610174D01*
X13912039Y-10610174D02*
X13912039Y-10657793D01*
X13912039Y-10657793D02*
X13902515Y-10695889D01*
X13902515Y-10695889D02*
X13892991Y-10714936D01*
X13892991Y-10714936D02*
X13883467Y-10724460D01*
X13883467Y-10724460D02*
X13864420Y-10733984D01*
X13864420Y-10733984D02*
X13845372Y-10733984D01*
X13845372Y-10733984D02*
X13826324Y-10724460D01*
X13826324Y-10724460D02*
X13816801Y-10714936D01*
X13816801Y-10714936D02*
X13807277Y-10695889D01*
X13807277Y-10695889D02*
X13797753Y-10657793D01*
X13797753Y-10657793D02*
X13797753Y-10610174D01*
X13797753Y-10610174D02*
X13807277Y-10572079D01*
X13807277Y-10572079D02*
X13816801Y-10553031D01*
X13816801Y-10553031D02*
X13826324Y-10543508D01*
X13826324Y-10543508D02*
X13845372Y-10533984D01*
X13997753Y-10714936D02*
X14007277Y-10724460D01*
X14007277Y-10724460D02*
X13997753Y-10733984D01*
X13997753Y-10733984D02*
X13988229Y-10724460D01*
X13988229Y-10724460D02*
X13997753Y-10714936D01*
X13997753Y-10714936D02*
X13997753Y-10733984D01*
X14073943Y-10533984D02*
X14197753Y-10533984D01*
X14197753Y-10533984D02*
X14131086Y-10610174D01*
X14131086Y-10610174D02*
X14159658Y-10610174D01*
X14159658Y-10610174D02*
X14178705Y-10619698D01*
X14178705Y-10619698D02*
X14188229Y-10629222D01*
X14188229Y-10629222D02*
X14197753Y-10648270D01*
X14197753Y-10648270D02*
X14197753Y-10695889D01*
X14197753Y-10695889D02*
X14188229Y-10714936D01*
X14188229Y-10714936D02*
X14178705Y-10724460D01*
X14178705Y-10724460D02*
X14159658Y-10733984D01*
X14159658Y-10733984D02*
X14102515Y-10733984D01*
X14102515Y-10733984D02*
X14083467Y-10724460D01*
X14083467Y-10724460D02*
X14073943Y-10714936D01*
X14321562Y-10533984D02*
X14340610Y-10533984D01*
X14340610Y-10533984D02*
X14359658Y-10543508D01*
X14359658Y-10543508D02*
X14369182Y-10553031D01*
X14369182Y-10553031D02*
X14378705Y-10572079D01*
X14378705Y-10572079D02*
X14388229Y-10610174D01*
X14388229Y-10610174D02*
X14388229Y-10657793D01*
X14388229Y-10657793D02*
X14378705Y-10695889D01*
X14378705Y-10695889D02*
X14369182Y-10714936D01*
X14369182Y-10714936D02*
X14359658Y-10724460D01*
X14359658Y-10724460D02*
X14340610Y-10733984D01*
X14340610Y-10733984D02*
X14321562Y-10733984D01*
X14321562Y-10733984D02*
X14302515Y-10724460D01*
X14302515Y-10724460D02*
X14292991Y-10714936D01*
X14292991Y-10714936D02*
X14283467Y-10695889D01*
X14283467Y-10695889D02*
X14273943Y-10657793D01*
X14273943Y-10657793D02*
X14273943Y-10610174D01*
X14273943Y-10610174D02*
X14283467Y-10572079D01*
X14283467Y-10572079D02*
X14292991Y-10553031D01*
X14292991Y-10553031D02*
X14302515Y-10543508D01*
X14302515Y-10543508D02*
X14321562Y-10533984D01*
X14512039Y-10533984D02*
X14531086Y-10533984D01*
X14531086Y-10533984D02*
X14550134Y-10543508D01*
X14550134Y-10543508D02*
X14559658Y-10553031D01*
X14559658Y-10553031D02*
X14569182Y-10572079D01*
X14569182Y-10572079D02*
X14578705Y-10610174D01*
X14578705Y-10610174D02*
X14578705Y-10657793D01*
X14578705Y-10657793D02*
X14569182Y-10695889D01*
X14569182Y-10695889D02*
X14559658Y-10714936D01*
X14559658Y-10714936D02*
X14550134Y-10724460D01*
X14550134Y-10724460D02*
X14531086Y-10733984D01*
X14531086Y-10733984D02*
X14512039Y-10733984D01*
X14512039Y-10733984D02*
X14492991Y-10724460D01*
X14492991Y-10724460D02*
X14483467Y-10714936D01*
X14483467Y-10714936D02*
X14473943Y-10695889D01*
X14473943Y-10695889D02*
X14464420Y-10657793D01*
X14464420Y-10657793D02*
X14464420Y-10610174D01*
X14464420Y-10610174D02*
X14473943Y-10572079D01*
X14473943Y-10572079D02*
X14483467Y-10553031D01*
X14483467Y-10553031D02*
X14492991Y-10543508D01*
X14492991Y-10543508D02*
X14512039Y-10533984D01*
X14664420Y-10733984D02*
X14664420Y-10600650D01*
X14664420Y-10619698D02*
X14673943Y-10610174D01*
X14673943Y-10610174D02*
X14692991Y-10600650D01*
X14692991Y-10600650D02*
X14721563Y-10600650D01*
X14721563Y-10600650D02*
X14740610Y-10610174D01*
X14740610Y-10610174D02*
X14750134Y-10629222D01*
X14750134Y-10629222D02*
X14750134Y-10733984D01*
X14750134Y-10629222D02*
X14759658Y-10610174D01*
X14759658Y-10610174D02*
X14778705Y-10600650D01*
X14778705Y-10600650D02*
X14807277Y-10600650D01*
X14807277Y-10600650D02*
X14826324Y-10610174D01*
X14826324Y-10610174D02*
X14835848Y-10629222D01*
X14835848Y-10629222D02*
X14835848Y-10733984D01*
X14931086Y-10733984D02*
X14931086Y-10600650D01*
X14931086Y-10619698D02*
X14940610Y-10610174D01*
X14940610Y-10610174D02*
X14959658Y-10600650D01*
X14959658Y-10600650D02*
X14988229Y-10600650D01*
X14988229Y-10600650D02*
X15007277Y-10610174D01*
X15007277Y-10610174D02*
X15016801Y-10629222D01*
X15016801Y-10629222D02*
X15016801Y-10733984D01*
X15016801Y-10629222D02*
X15026324Y-10610174D01*
X15026324Y-10610174D02*
X15045372Y-10600650D01*
X15045372Y-10600650D02*
X15073943Y-10600650D01*
X15073943Y-10600650D02*
X15092991Y-10610174D01*
X15092991Y-10610174D02*
X15102515Y-10629222D01*
X15102515Y-10629222D02*
X15102515Y-10733984D01*
X15492991Y-10524460D02*
X15321563Y-10781603D01*
X15750134Y-10533984D02*
X15769182Y-10533984D01*
X15769182Y-10533984D02*
X15788229Y-10543508D01*
X15788229Y-10543508D02*
X15797753Y-10553031D01*
X15797753Y-10553031D02*
X15807277Y-10572079D01*
X15807277Y-10572079D02*
X15816801Y-10610174D01*
X15816801Y-10610174D02*
X15816801Y-10657793D01*
X15816801Y-10657793D02*
X15807277Y-10695889D01*
X15807277Y-10695889D02*
X15797753Y-10714936D01*
X15797753Y-10714936D02*
X15788229Y-10724460D01*
X15788229Y-10724460D02*
X15769182Y-10733984D01*
X15769182Y-10733984D02*
X15750134Y-10733984D01*
X15750134Y-10733984D02*
X15731086Y-10724460D01*
X15731086Y-10724460D02*
X15721563Y-10714936D01*
X15721563Y-10714936D02*
X15712039Y-10695889D01*
X15712039Y-10695889D02*
X15702515Y-10657793D01*
X15702515Y-10657793D02*
X15702515Y-10610174D01*
X15702515Y-10610174D02*
X15712039Y-10572079D01*
X15712039Y-10572079D02*
X15721563Y-10553031D01*
X15721563Y-10553031D02*
X15731086Y-10543508D01*
X15731086Y-10543508D02*
X15750134Y-10533984D01*
X15902515Y-10714936D02*
X15912039Y-10724460D01*
X15912039Y-10724460D02*
X15902515Y-10733984D01*
X15902515Y-10733984D02*
X15892991Y-10724460D01*
X15892991Y-10724460D02*
X15902515Y-10714936D01*
X15902515Y-10714936D02*
X15902515Y-10733984D01*
X16035848Y-10533984D02*
X16054896Y-10533984D01*
X16054896Y-10533984D02*
X16073944Y-10543508D01*
X16073944Y-10543508D02*
X16083467Y-10553031D01*
X16083467Y-10553031D02*
X16092991Y-10572079D01*
X16092991Y-10572079D02*
X16102515Y-10610174D01*
X16102515Y-10610174D02*
X16102515Y-10657793D01*
X16102515Y-10657793D02*
X16092991Y-10695889D01*
X16092991Y-10695889D02*
X16083467Y-10714936D01*
X16083467Y-10714936D02*
X16073944Y-10724460D01*
X16073944Y-10724460D02*
X16054896Y-10733984D01*
X16054896Y-10733984D02*
X16035848Y-10733984D01*
X16035848Y-10733984D02*
X16016801Y-10724460D01*
X16016801Y-10724460D02*
X16007277Y-10714936D01*
X16007277Y-10714936D02*
X15997753Y-10695889D01*
X15997753Y-10695889D02*
X15988229Y-10657793D01*
X15988229Y-10657793D02*
X15988229Y-10610174D01*
X15988229Y-10610174D02*
X15997753Y-10572079D01*
X15997753Y-10572079D02*
X16007277Y-10553031D01*
X16007277Y-10553031D02*
X16016801Y-10543508D01*
X16016801Y-10543508D02*
X16035848Y-10533984D01*
X16292991Y-10733984D02*
X16178706Y-10733984D01*
X16235848Y-10733984D02*
X16235848Y-10533984D01*
X16235848Y-10533984D02*
X16216801Y-10562555D01*
X16216801Y-10562555D02*
X16197753Y-10581603D01*
X16197753Y-10581603D02*
X16178706Y-10591127D01*
X16483467Y-10733984D02*
X16369182Y-10733984D01*
X16426325Y-10733984D02*
X16426325Y-10533984D01*
X16426325Y-10533984D02*
X16407277Y-10562555D01*
X16407277Y-10562555D02*
X16388229Y-10581603D01*
X16388229Y-10581603D02*
X16369182Y-10591127D01*
X16597753Y-10619698D02*
X16578706Y-10610174D01*
X16578706Y-10610174D02*
X16569182Y-10600650D01*
X16569182Y-10600650D02*
X16559658Y-10581603D01*
X16559658Y-10581603D02*
X16559658Y-10572079D01*
X16559658Y-10572079D02*
X16569182Y-10553031D01*
X16569182Y-10553031D02*
X16578706Y-10543508D01*
X16578706Y-10543508D02*
X16597753Y-10533984D01*
X16597753Y-10533984D02*
X16635848Y-10533984D01*
X16635848Y-10533984D02*
X16654896Y-10543508D01*
X16654896Y-10543508D02*
X16664420Y-10553031D01*
X16664420Y-10553031D02*
X16673944Y-10572079D01*
X16673944Y-10572079D02*
X16673944Y-10581603D01*
X16673944Y-10581603D02*
X16664420Y-10600650D01*
X16664420Y-10600650D02*
X16654896Y-10610174D01*
X16654896Y-10610174D02*
X16635848Y-10619698D01*
X16635848Y-10619698D02*
X16597753Y-10619698D01*
X16597753Y-10619698D02*
X16578706Y-10629222D01*
X16578706Y-10629222D02*
X16569182Y-10638746D01*
X16569182Y-10638746D02*
X16559658Y-10657793D01*
X16559658Y-10657793D02*
X16559658Y-10695889D01*
X16559658Y-10695889D02*
X16569182Y-10714936D01*
X16569182Y-10714936D02*
X16578706Y-10724460D01*
X16578706Y-10724460D02*
X16597753Y-10733984D01*
X16597753Y-10733984D02*
X16635848Y-10733984D01*
X16635848Y-10733984D02*
X16654896Y-10724460D01*
X16654896Y-10724460D02*
X16664420Y-10714936D01*
X16664420Y-10714936D02*
X16673944Y-10695889D01*
X16673944Y-10695889D02*
X16673944Y-10657793D01*
X16673944Y-10657793D02*
X16664420Y-10638746D01*
X16664420Y-10638746D02*
X16654896Y-10629222D01*
X16654896Y-10629222D02*
X16635848Y-10619698D01*
X16750134Y-10533984D02*
X16750134Y-10572079D01*
X16826325Y-10533984D02*
X16826325Y-10572079D01*
X17121563Y-10810174D02*
X17112039Y-10800650D01*
X17112039Y-10800650D02*
X17092991Y-10772079D01*
X17092991Y-10772079D02*
X17083468Y-10753031D01*
X17083468Y-10753031D02*
X17073944Y-10724460D01*
X17073944Y-10724460D02*
X17064420Y-10676841D01*
X17064420Y-10676841D02*
X17064420Y-10638746D01*
X17064420Y-10638746D02*
X17073944Y-10591127D01*
X17073944Y-10591127D02*
X17083468Y-10562555D01*
X17083468Y-10562555D02*
X17092991Y-10543508D01*
X17092991Y-10543508D02*
X17112039Y-10514936D01*
X17112039Y-10514936D02*
X17121563Y-10505412D01*
X17283468Y-10600650D02*
X17283468Y-10733984D01*
X17235849Y-10524460D02*
X17188230Y-10667317D01*
X17188230Y-10667317D02*
X17312039Y-10667317D01*
X17369182Y-10533984D02*
X17492991Y-10533984D01*
X17492991Y-10533984D02*
X17426325Y-10610174D01*
X17426325Y-10610174D02*
X17454896Y-10610174D01*
X17454896Y-10610174D02*
X17473944Y-10619698D01*
X17473944Y-10619698D02*
X17483468Y-10629222D01*
X17483468Y-10629222D02*
X17492991Y-10648270D01*
X17492991Y-10648270D02*
X17492991Y-10695889D01*
X17492991Y-10695889D02*
X17483468Y-10714936D01*
X17483468Y-10714936D02*
X17473944Y-10724460D01*
X17473944Y-10724460D02*
X17454896Y-10733984D01*
X17454896Y-10733984D02*
X17397753Y-10733984D01*
X17397753Y-10733984D02*
X17378706Y-10724460D01*
X17378706Y-10724460D02*
X17369182Y-10714936D01*
X17731087Y-10733984D02*
X17731087Y-10533984D01*
X17816801Y-10733984D02*
X17816801Y-10629222D01*
X17816801Y-10629222D02*
X17807277Y-10610174D01*
X17807277Y-10610174D02*
X17788230Y-10600650D01*
X17788230Y-10600650D02*
X17759658Y-10600650D01*
X17759658Y-10600650D02*
X17740611Y-10610174D01*
X17740611Y-10610174D02*
X17731087Y-10619698D01*
X17940611Y-10733984D02*
X17921563Y-10724460D01*
X17921563Y-10724460D02*
X17912039Y-10714936D01*
X17912039Y-10714936D02*
X17902515Y-10695889D01*
X17902515Y-10695889D02*
X17902515Y-10638746D01*
X17902515Y-10638746D02*
X17912039Y-10619698D01*
X17912039Y-10619698D02*
X17921563Y-10610174D01*
X17921563Y-10610174D02*
X17940611Y-10600650D01*
X17940611Y-10600650D02*
X17969182Y-10600650D01*
X17969182Y-10600650D02*
X17988230Y-10610174D01*
X17988230Y-10610174D02*
X17997753Y-10619698D01*
X17997753Y-10619698D02*
X18007277Y-10638746D01*
X18007277Y-10638746D02*
X18007277Y-10695889D01*
X18007277Y-10695889D02*
X17997753Y-10714936D01*
X17997753Y-10714936D02*
X17988230Y-10724460D01*
X17988230Y-10724460D02*
X17969182Y-10733984D01*
X17969182Y-10733984D02*
X17940611Y-10733984D01*
X18121563Y-10733984D02*
X18102515Y-10724460D01*
X18102515Y-10724460D02*
X18092992Y-10705412D01*
X18092992Y-10705412D02*
X18092992Y-10533984D01*
X18273944Y-10724460D02*
X18254896Y-10733984D01*
X18254896Y-10733984D02*
X18216801Y-10733984D01*
X18216801Y-10733984D02*
X18197753Y-10724460D01*
X18197753Y-10724460D02*
X18188230Y-10705412D01*
X18188230Y-10705412D02*
X18188230Y-10629222D01*
X18188230Y-10629222D02*
X18197753Y-10610174D01*
X18197753Y-10610174D02*
X18216801Y-10600650D01*
X18216801Y-10600650D02*
X18254896Y-10600650D01*
X18254896Y-10600650D02*
X18273944Y-10610174D01*
X18273944Y-10610174D02*
X18283468Y-10629222D01*
X18283468Y-10629222D02*
X18283468Y-10648270D01*
X18283468Y-10648270D02*
X18188230Y-10667317D01*
X18359658Y-10724460D02*
X18378706Y-10733984D01*
X18378706Y-10733984D02*
X18416801Y-10733984D01*
X18416801Y-10733984D02*
X18435849Y-10724460D01*
X18435849Y-10724460D02*
X18445373Y-10705412D01*
X18445373Y-10705412D02*
X18445373Y-10695889D01*
X18445373Y-10695889D02*
X18435849Y-10676841D01*
X18435849Y-10676841D02*
X18416801Y-10667317D01*
X18416801Y-10667317D02*
X18388230Y-10667317D01*
X18388230Y-10667317D02*
X18369182Y-10657793D01*
X18369182Y-10657793D02*
X18359658Y-10638746D01*
X18359658Y-10638746D02*
X18359658Y-10629222D01*
X18359658Y-10629222D02*
X18369182Y-10610174D01*
X18369182Y-10610174D02*
X18388230Y-10600650D01*
X18388230Y-10600650D02*
X18416801Y-10600650D01*
X18416801Y-10600650D02*
X18435849Y-10610174D01*
X18512039Y-10810174D02*
X18521563Y-10800650D01*
X18521563Y-10800650D02*
X18540611Y-10772079D01*
X18540611Y-10772079D02*
X18550134Y-10753031D01*
X18550134Y-10753031D02*
X18559658Y-10724460D01*
X18559658Y-10724460D02*
X18569182Y-10676841D01*
X18569182Y-10676841D02*
X18569182Y-10638746D01*
X18569182Y-10638746D02*
X18559658Y-10591127D01*
X18559658Y-10591127D02*
X18550134Y-10562555D01*
X18550134Y-10562555D02*
X18540611Y-10543508D01*
X18540611Y-10543508D02*
X18521563Y-10514936D01*
X18521563Y-10514936D02*
X18512039Y-10505412D01*
D12*
X13546500Y-10906500D02*
G75*
G02*
X13446500Y-10906500I-50000J0D01*
G01*
X13446500Y-10906500D02*
G75*
G02*
X13546500Y-10906500I50000J0D01*
G01*
D11*
X13912039Y-10997984D02*
X13797753Y-10997984D01*
X13854896Y-10997984D02*
X13854896Y-10797984D01*
X13854896Y-10797984D02*
X13835848Y-10826555D01*
X13835848Y-10826555D02*
X13816801Y-10845603D01*
X13816801Y-10845603D02*
X13797753Y-10855127D01*
X13997753Y-10978936D02*
X14007277Y-10988460D01*
X14007277Y-10988460D02*
X13997753Y-10997984D01*
X13997753Y-10997984D02*
X13988229Y-10988460D01*
X13988229Y-10988460D02*
X13997753Y-10978936D01*
X13997753Y-10978936D02*
X13997753Y-10997984D01*
X14131086Y-10797984D02*
X14150134Y-10797984D01*
X14150134Y-10797984D02*
X14169182Y-10807508D01*
X14169182Y-10807508D02*
X14178705Y-10817031D01*
X14178705Y-10817031D02*
X14188229Y-10836079D01*
X14188229Y-10836079D02*
X14197753Y-10874174D01*
X14197753Y-10874174D02*
X14197753Y-10921793D01*
X14197753Y-10921793D02*
X14188229Y-10959889D01*
X14188229Y-10959889D02*
X14178705Y-10978936D01*
X14178705Y-10978936D02*
X14169182Y-10988460D01*
X14169182Y-10988460D02*
X14150134Y-10997984D01*
X14150134Y-10997984D02*
X14131086Y-10997984D01*
X14131086Y-10997984D02*
X14112039Y-10988460D01*
X14112039Y-10988460D02*
X14102515Y-10978936D01*
X14102515Y-10978936D02*
X14092991Y-10959889D01*
X14092991Y-10959889D02*
X14083467Y-10921793D01*
X14083467Y-10921793D02*
X14083467Y-10874174D01*
X14083467Y-10874174D02*
X14092991Y-10836079D01*
X14092991Y-10836079D02*
X14102515Y-10817031D01*
X14102515Y-10817031D02*
X14112039Y-10807508D01*
X14112039Y-10807508D02*
X14131086Y-10797984D01*
X14321562Y-10797984D02*
X14340610Y-10797984D01*
X14340610Y-10797984D02*
X14359658Y-10807508D01*
X14359658Y-10807508D02*
X14369182Y-10817031D01*
X14369182Y-10817031D02*
X14378705Y-10836079D01*
X14378705Y-10836079D02*
X14388229Y-10874174D01*
X14388229Y-10874174D02*
X14388229Y-10921793D01*
X14388229Y-10921793D02*
X14378705Y-10959889D01*
X14378705Y-10959889D02*
X14369182Y-10978936D01*
X14369182Y-10978936D02*
X14359658Y-10988460D01*
X14359658Y-10988460D02*
X14340610Y-10997984D01*
X14340610Y-10997984D02*
X14321562Y-10997984D01*
X14321562Y-10997984D02*
X14302515Y-10988460D01*
X14302515Y-10988460D02*
X14292991Y-10978936D01*
X14292991Y-10978936D02*
X14283467Y-10959889D01*
X14283467Y-10959889D02*
X14273943Y-10921793D01*
X14273943Y-10921793D02*
X14273943Y-10874174D01*
X14273943Y-10874174D02*
X14283467Y-10836079D01*
X14283467Y-10836079D02*
X14292991Y-10817031D01*
X14292991Y-10817031D02*
X14302515Y-10807508D01*
X14302515Y-10807508D02*
X14321562Y-10797984D01*
X14512039Y-10797984D02*
X14531086Y-10797984D01*
X14531086Y-10797984D02*
X14550134Y-10807508D01*
X14550134Y-10807508D02*
X14559658Y-10817031D01*
X14559658Y-10817031D02*
X14569182Y-10836079D01*
X14569182Y-10836079D02*
X14578705Y-10874174D01*
X14578705Y-10874174D02*
X14578705Y-10921793D01*
X14578705Y-10921793D02*
X14569182Y-10959889D01*
X14569182Y-10959889D02*
X14559658Y-10978936D01*
X14559658Y-10978936D02*
X14550134Y-10988460D01*
X14550134Y-10988460D02*
X14531086Y-10997984D01*
X14531086Y-10997984D02*
X14512039Y-10997984D01*
X14512039Y-10997984D02*
X14492991Y-10988460D01*
X14492991Y-10988460D02*
X14483467Y-10978936D01*
X14483467Y-10978936D02*
X14473943Y-10959889D01*
X14473943Y-10959889D02*
X14464420Y-10921793D01*
X14464420Y-10921793D02*
X14464420Y-10874174D01*
X14464420Y-10874174D02*
X14473943Y-10836079D01*
X14473943Y-10836079D02*
X14483467Y-10817031D01*
X14483467Y-10817031D02*
X14492991Y-10807508D01*
X14492991Y-10807508D02*
X14512039Y-10797984D01*
X14664420Y-10997984D02*
X14664420Y-10864650D01*
X14664420Y-10883698D02*
X14673943Y-10874174D01*
X14673943Y-10874174D02*
X14692991Y-10864650D01*
X14692991Y-10864650D02*
X14721563Y-10864650D01*
X14721563Y-10864650D02*
X14740610Y-10874174D01*
X14740610Y-10874174D02*
X14750134Y-10893222D01*
X14750134Y-10893222D02*
X14750134Y-10997984D01*
X14750134Y-10893222D02*
X14759658Y-10874174D01*
X14759658Y-10874174D02*
X14778705Y-10864650D01*
X14778705Y-10864650D02*
X14807277Y-10864650D01*
X14807277Y-10864650D02*
X14826324Y-10874174D01*
X14826324Y-10874174D02*
X14835848Y-10893222D01*
X14835848Y-10893222D02*
X14835848Y-10997984D01*
X14931086Y-10997984D02*
X14931086Y-10864650D01*
X14931086Y-10883698D02*
X14940610Y-10874174D01*
X14940610Y-10874174D02*
X14959658Y-10864650D01*
X14959658Y-10864650D02*
X14988229Y-10864650D01*
X14988229Y-10864650D02*
X15007277Y-10874174D01*
X15007277Y-10874174D02*
X15016801Y-10893222D01*
X15016801Y-10893222D02*
X15016801Y-10997984D01*
X15016801Y-10893222D02*
X15026324Y-10874174D01*
X15026324Y-10874174D02*
X15045372Y-10864650D01*
X15045372Y-10864650D02*
X15073943Y-10864650D01*
X15073943Y-10864650D02*
X15092991Y-10874174D01*
X15092991Y-10874174D02*
X15102515Y-10893222D01*
X15102515Y-10893222D02*
X15102515Y-10997984D01*
X15492991Y-10788460D02*
X15321563Y-11045603D01*
X15750134Y-10797984D02*
X15769182Y-10797984D01*
X15769182Y-10797984D02*
X15788229Y-10807508D01*
X15788229Y-10807508D02*
X15797753Y-10817031D01*
X15797753Y-10817031D02*
X15807277Y-10836079D01*
X15807277Y-10836079D02*
X15816801Y-10874174D01*
X15816801Y-10874174D02*
X15816801Y-10921793D01*
X15816801Y-10921793D02*
X15807277Y-10959889D01*
X15807277Y-10959889D02*
X15797753Y-10978936D01*
X15797753Y-10978936D02*
X15788229Y-10988460D01*
X15788229Y-10988460D02*
X15769182Y-10997984D01*
X15769182Y-10997984D02*
X15750134Y-10997984D01*
X15750134Y-10997984D02*
X15731086Y-10988460D01*
X15731086Y-10988460D02*
X15721563Y-10978936D01*
X15721563Y-10978936D02*
X15712039Y-10959889D01*
X15712039Y-10959889D02*
X15702515Y-10921793D01*
X15702515Y-10921793D02*
X15702515Y-10874174D01*
X15702515Y-10874174D02*
X15712039Y-10836079D01*
X15712039Y-10836079D02*
X15721563Y-10817031D01*
X15721563Y-10817031D02*
X15731086Y-10807508D01*
X15731086Y-10807508D02*
X15750134Y-10797984D01*
X15902515Y-10978936D02*
X15912039Y-10988460D01*
X15912039Y-10988460D02*
X15902515Y-10997984D01*
X15902515Y-10997984D02*
X15892991Y-10988460D01*
X15892991Y-10988460D02*
X15902515Y-10978936D01*
X15902515Y-10978936D02*
X15902515Y-10997984D01*
X16035848Y-10797984D02*
X16054896Y-10797984D01*
X16054896Y-10797984D02*
X16073944Y-10807508D01*
X16073944Y-10807508D02*
X16083467Y-10817031D01*
X16083467Y-10817031D02*
X16092991Y-10836079D01*
X16092991Y-10836079D02*
X16102515Y-10874174D01*
X16102515Y-10874174D02*
X16102515Y-10921793D01*
X16102515Y-10921793D02*
X16092991Y-10959889D01*
X16092991Y-10959889D02*
X16083467Y-10978936D01*
X16083467Y-10978936D02*
X16073944Y-10988460D01*
X16073944Y-10988460D02*
X16054896Y-10997984D01*
X16054896Y-10997984D02*
X16035848Y-10997984D01*
X16035848Y-10997984D02*
X16016801Y-10988460D01*
X16016801Y-10988460D02*
X16007277Y-10978936D01*
X16007277Y-10978936D02*
X15997753Y-10959889D01*
X15997753Y-10959889D02*
X15988229Y-10921793D01*
X15988229Y-10921793D02*
X15988229Y-10874174D01*
X15988229Y-10874174D02*
X15997753Y-10836079D01*
X15997753Y-10836079D02*
X16007277Y-10817031D01*
X16007277Y-10817031D02*
X16016801Y-10807508D01*
X16016801Y-10807508D02*
X16035848Y-10797984D01*
X16169182Y-10797984D02*
X16292991Y-10797984D01*
X16292991Y-10797984D02*
X16226325Y-10874174D01*
X16226325Y-10874174D02*
X16254896Y-10874174D01*
X16254896Y-10874174D02*
X16273944Y-10883698D01*
X16273944Y-10883698D02*
X16283467Y-10893222D01*
X16283467Y-10893222D02*
X16292991Y-10912270D01*
X16292991Y-10912270D02*
X16292991Y-10959889D01*
X16292991Y-10959889D02*
X16283467Y-10978936D01*
X16283467Y-10978936D02*
X16273944Y-10988460D01*
X16273944Y-10988460D02*
X16254896Y-10997984D01*
X16254896Y-10997984D02*
X16197753Y-10997984D01*
X16197753Y-10997984D02*
X16178706Y-10988460D01*
X16178706Y-10988460D02*
X16169182Y-10978936D01*
X16388229Y-10997984D02*
X16426325Y-10997984D01*
X16426325Y-10997984D02*
X16445372Y-10988460D01*
X16445372Y-10988460D02*
X16454896Y-10978936D01*
X16454896Y-10978936D02*
X16473944Y-10950365D01*
X16473944Y-10950365D02*
X16483467Y-10912270D01*
X16483467Y-10912270D02*
X16483467Y-10836079D01*
X16483467Y-10836079D02*
X16473944Y-10817031D01*
X16473944Y-10817031D02*
X16464420Y-10807508D01*
X16464420Y-10807508D02*
X16445372Y-10797984D01*
X16445372Y-10797984D02*
X16407277Y-10797984D01*
X16407277Y-10797984D02*
X16388229Y-10807508D01*
X16388229Y-10807508D02*
X16378706Y-10817031D01*
X16378706Y-10817031D02*
X16369182Y-10836079D01*
X16369182Y-10836079D02*
X16369182Y-10883698D01*
X16369182Y-10883698D02*
X16378706Y-10902746D01*
X16378706Y-10902746D02*
X16388229Y-10912270D01*
X16388229Y-10912270D02*
X16407277Y-10921793D01*
X16407277Y-10921793D02*
X16445372Y-10921793D01*
X16445372Y-10921793D02*
X16464420Y-10912270D01*
X16464420Y-10912270D02*
X16473944Y-10902746D01*
X16473944Y-10902746D02*
X16483467Y-10883698D01*
X16654896Y-10864650D02*
X16654896Y-10997984D01*
X16607277Y-10788460D02*
X16559658Y-10931317D01*
X16559658Y-10931317D02*
X16683467Y-10931317D01*
X16750134Y-10797984D02*
X16750134Y-10836079D01*
X16826325Y-10797984D02*
X16826325Y-10836079D01*
X17121563Y-11074174D02*
X17112039Y-11064650D01*
X17112039Y-11064650D02*
X17092991Y-11036079D01*
X17092991Y-11036079D02*
X17083468Y-11017031D01*
X17083468Y-11017031D02*
X17073944Y-10988460D01*
X17073944Y-10988460D02*
X17064420Y-10940841D01*
X17064420Y-10940841D02*
X17064420Y-10902746D01*
X17064420Y-10902746D02*
X17073944Y-10855127D01*
X17073944Y-10855127D02*
X17083468Y-10826555D01*
X17083468Y-10826555D02*
X17092991Y-10807508D01*
X17092991Y-10807508D02*
X17112039Y-10778936D01*
X17112039Y-10778936D02*
X17121563Y-10769412D01*
X17283468Y-10797984D02*
X17245372Y-10797984D01*
X17245372Y-10797984D02*
X17226325Y-10807508D01*
X17226325Y-10807508D02*
X17216801Y-10817031D01*
X17216801Y-10817031D02*
X17197753Y-10845603D01*
X17197753Y-10845603D02*
X17188230Y-10883698D01*
X17188230Y-10883698D02*
X17188230Y-10959889D01*
X17188230Y-10959889D02*
X17197753Y-10978936D01*
X17197753Y-10978936D02*
X17207277Y-10988460D01*
X17207277Y-10988460D02*
X17226325Y-10997984D01*
X17226325Y-10997984D02*
X17264420Y-10997984D01*
X17264420Y-10997984D02*
X17283468Y-10988460D01*
X17283468Y-10988460D02*
X17292991Y-10978936D01*
X17292991Y-10978936D02*
X17302515Y-10959889D01*
X17302515Y-10959889D02*
X17302515Y-10912270D01*
X17302515Y-10912270D02*
X17292991Y-10893222D01*
X17292991Y-10893222D02*
X17283468Y-10883698D01*
X17283468Y-10883698D02*
X17264420Y-10874174D01*
X17264420Y-10874174D02*
X17226325Y-10874174D01*
X17226325Y-10874174D02*
X17207277Y-10883698D01*
X17207277Y-10883698D02*
X17197753Y-10893222D01*
X17197753Y-10893222D02*
X17188230Y-10912270D01*
X17540611Y-10997984D02*
X17540611Y-10797984D01*
X17626325Y-10997984D02*
X17626325Y-10893222D01*
X17626325Y-10893222D02*
X17616801Y-10874174D01*
X17616801Y-10874174D02*
X17597753Y-10864650D01*
X17597753Y-10864650D02*
X17569182Y-10864650D01*
X17569182Y-10864650D02*
X17550134Y-10874174D01*
X17550134Y-10874174D02*
X17540611Y-10883698D01*
X17750134Y-10997984D02*
X17731087Y-10988460D01*
X17731087Y-10988460D02*
X17721563Y-10978936D01*
X17721563Y-10978936D02*
X17712039Y-10959889D01*
X17712039Y-10959889D02*
X17712039Y-10902746D01*
X17712039Y-10902746D02*
X17721563Y-10883698D01*
X17721563Y-10883698D02*
X17731087Y-10874174D01*
X17731087Y-10874174D02*
X17750134Y-10864650D01*
X17750134Y-10864650D02*
X17778706Y-10864650D01*
X17778706Y-10864650D02*
X17797753Y-10874174D01*
X17797753Y-10874174D02*
X17807277Y-10883698D01*
X17807277Y-10883698D02*
X17816801Y-10902746D01*
X17816801Y-10902746D02*
X17816801Y-10959889D01*
X17816801Y-10959889D02*
X17807277Y-10978936D01*
X17807277Y-10978936D02*
X17797753Y-10988460D01*
X17797753Y-10988460D02*
X17778706Y-10997984D01*
X17778706Y-10997984D02*
X17750134Y-10997984D01*
X17931087Y-10997984D02*
X17912039Y-10988460D01*
X17912039Y-10988460D02*
X17902515Y-10969412D01*
X17902515Y-10969412D02*
X17902515Y-10797984D01*
X18083468Y-10988460D02*
X18064420Y-10997984D01*
X18064420Y-10997984D02*
X18026325Y-10997984D01*
X18026325Y-10997984D02*
X18007277Y-10988460D01*
X18007277Y-10988460D02*
X17997753Y-10969412D01*
X17997753Y-10969412D02*
X17997753Y-10893222D01*
X17997753Y-10893222D02*
X18007277Y-10874174D01*
X18007277Y-10874174D02*
X18026325Y-10864650D01*
X18026325Y-10864650D02*
X18064420Y-10864650D01*
X18064420Y-10864650D02*
X18083468Y-10874174D01*
X18083468Y-10874174D02*
X18092992Y-10893222D01*
X18092992Y-10893222D02*
X18092992Y-10912270D01*
X18092992Y-10912270D02*
X17997753Y-10931317D01*
X18169182Y-10988460D02*
X18188230Y-10997984D01*
X18188230Y-10997984D02*
X18226325Y-10997984D01*
X18226325Y-10997984D02*
X18245373Y-10988460D01*
X18245373Y-10988460D02*
X18254896Y-10969412D01*
X18254896Y-10969412D02*
X18254896Y-10959889D01*
X18254896Y-10959889D02*
X18245373Y-10940841D01*
X18245373Y-10940841D02*
X18226325Y-10931317D01*
X18226325Y-10931317D02*
X18197753Y-10931317D01*
X18197753Y-10931317D02*
X18178706Y-10921793D01*
X18178706Y-10921793D02*
X18169182Y-10902746D01*
X18169182Y-10902746D02*
X18169182Y-10893222D01*
X18169182Y-10893222D02*
X18178706Y-10874174D01*
X18178706Y-10874174D02*
X18197753Y-10864650D01*
X18197753Y-10864650D02*
X18226325Y-10864650D01*
X18226325Y-10864650D02*
X18245373Y-10874174D01*
X18321563Y-11074174D02*
X18331087Y-11064650D01*
X18331087Y-11064650D02*
X18350134Y-11036079D01*
X18350134Y-11036079D02*
X18359658Y-11017031D01*
X18359658Y-11017031D02*
X18369182Y-10988460D01*
X18369182Y-10988460D02*
X18378706Y-10940841D01*
X18378706Y-10940841D02*
X18378706Y-10902746D01*
X18378706Y-10902746D02*
X18369182Y-10855127D01*
X18369182Y-10855127D02*
X18359658Y-10826555D01*
X18359658Y-10826555D02*
X18350134Y-10807508D01*
X18350134Y-10807508D02*
X18331087Y-10778936D01*
X18331087Y-10778936D02*
X18321563Y-10769412D01*
X13446500Y-11070500D02*
X13446500Y-11270500D01*
X13346500Y-11170500D02*
X13546500Y-11170500D01*
X13797753Y-11081031D02*
X13807277Y-11071508D01*
X13807277Y-11071508D02*
X13826324Y-11061984D01*
X13826324Y-11061984D02*
X13873943Y-11061984D01*
X13873943Y-11061984D02*
X13892991Y-11071508D01*
X13892991Y-11071508D02*
X13902515Y-11081031D01*
X13902515Y-11081031D02*
X13912039Y-11100079D01*
X13912039Y-11100079D02*
X13912039Y-11119127D01*
X13912039Y-11119127D02*
X13902515Y-11147698D01*
X13902515Y-11147698D02*
X13788229Y-11261984D01*
X13788229Y-11261984D02*
X13912039Y-11261984D01*
X13997753Y-11242936D02*
X14007277Y-11252460D01*
X14007277Y-11252460D02*
X13997753Y-11261984D01*
X13997753Y-11261984D02*
X13988229Y-11252460D01*
X13988229Y-11252460D02*
X13997753Y-11242936D01*
X13997753Y-11242936D02*
X13997753Y-11261984D01*
X14131086Y-11061984D02*
X14150134Y-11061984D01*
X14150134Y-11061984D02*
X14169182Y-11071508D01*
X14169182Y-11071508D02*
X14178705Y-11081031D01*
X14178705Y-11081031D02*
X14188229Y-11100079D01*
X14188229Y-11100079D02*
X14197753Y-11138174D01*
X14197753Y-11138174D02*
X14197753Y-11185793D01*
X14197753Y-11185793D02*
X14188229Y-11223888D01*
X14188229Y-11223888D02*
X14178705Y-11242936D01*
X14178705Y-11242936D02*
X14169182Y-11252460D01*
X14169182Y-11252460D02*
X14150134Y-11261984D01*
X14150134Y-11261984D02*
X14131086Y-11261984D01*
X14131086Y-11261984D02*
X14112039Y-11252460D01*
X14112039Y-11252460D02*
X14102515Y-11242936D01*
X14102515Y-11242936D02*
X14092991Y-11223888D01*
X14092991Y-11223888D02*
X14083467Y-11185793D01*
X14083467Y-11185793D02*
X14083467Y-11138174D01*
X14083467Y-11138174D02*
X14092991Y-11100079D01*
X14092991Y-11100079D02*
X14102515Y-11081031D01*
X14102515Y-11081031D02*
X14112039Y-11071508D01*
X14112039Y-11071508D02*
X14131086Y-11061984D01*
X14321562Y-11061984D02*
X14340610Y-11061984D01*
X14340610Y-11061984D02*
X14359658Y-11071508D01*
X14359658Y-11071508D02*
X14369182Y-11081031D01*
X14369182Y-11081031D02*
X14378705Y-11100079D01*
X14378705Y-11100079D02*
X14388229Y-11138174D01*
X14388229Y-11138174D02*
X14388229Y-11185793D01*
X14388229Y-11185793D02*
X14378705Y-11223888D01*
X14378705Y-11223888D02*
X14369182Y-11242936D01*
X14369182Y-11242936D02*
X14359658Y-11252460D01*
X14359658Y-11252460D02*
X14340610Y-11261984D01*
X14340610Y-11261984D02*
X14321562Y-11261984D01*
X14321562Y-11261984D02*
X14302515Y-11252460D01*
X14302515Y-11252460D02*
X14292991Y-11242936D01*
X14292991Y-11242936D02*
X14283467Y-11223888D01*
X14283467Y-11223888D02*
X14273943Y-11185793D01*
X14273943Y-11185793D02*
X14273943Y-11138174D01*
X14273943Y-11138174D02*
X14283467Y-11100079D01*
X14283467Y-11100079D02*
X14292991Y-11081031D01*
X14292991Y-11081031D02*
X14302515Y-11071508D01*
X14302515Y-11071508D02*
X14321562Y-11061984D01*
X14512039Y-11061984D02*
X14531086Y-11061984D01*
X14531086Y-11061984D02*
X14550134Y-11071508D01*
X14550134Y-11071508D02*
X14559658Y-11081031D01*
X14559658Y-11081031D02*
X14569182Y-11100079D01*
X14569182Y-11100079D02*
X14578705Y-11138174D01*
X14578705Y-11138174D02*
X14578705Y-11185793D01*
X14578705Y-11185793D02*
X14569182Y-11223888D01*
X14569182Y-11223888D02*
X14559658Y-11242936D01*
X14559658Y-11242936D02*
X14550134Y-11252460D01*
X14550134Y-11252460D02*
X14531086Y-11261984D01*
X14531086Y-11261984D02*
X14512039Y-11261984D01*
X14512039Y-11261984D02*
X14492991Y-11252460D01*
X14492991Y-11252460D02*
X14483467Y-11242936D01*
X14483467Y-11242936D02*
X14473943Y-11223888D01*
X14473943Y-11223888D02*
X14464420Y-11185793D01*
X14464420Y-11185793D02*
X14464420Y-11138174D01*
X14464420Y-11138174D02*
X14473943Y-11100079D01*
X14473943Y-11100079D02*
X14483467Y-11081031D01*
X14483467Y-11081031D02*
X14492991Y-11071508D01*
X14492991Y-11071508D02*
X14512039Y-11061984D01*
X14664420Y-11261984D02*
X14664420Y-11128650D01*
X14664420Y-11147698D02*
X14673943Y-11138174D01*
X14673943Y-11138174D02*
X14692991Y-11128650D01*
X14692991Y-11128650D02*
X14721563Y-11128650D01*
X14721563Y-11128650D02*
X14740610Y-11138174D01*
X14740610Y-11138174D02*
X14750134Y-11157222D01*
X14750134Y-11157222D02*
X14750134Y-11261984D01*
X14750134Y-11157222D02*
X14759658Y-11138174D01*
X14759658Y-11138174D02*
X14778705Y-11128650D01*
X14778705Y-11128650D02*
X14807277Y-11128650D01*
X14807277Y-11128650D02*
X14826324Y-11138174D01*
X14826324Y-11138174D02*
X14835848Y-11157222D01*
X14835848Y-11157222D02*
X14835848Y-11261984D01*
X14931086Y-11261984D02*
X14931086Y-11128650D01*
X14931086Y-11147698D02*
X14940610Y-11138174D01*
X14940610Y-11138174D02*
X14959658Y-11128650D01*
X14959658Y-11128650D02*
X14988229Y-11128650D01*
X14988229Y-11128650D02*
X15007277Y-11138174D01*
X15007277Y-11138174D02*
X15016801Y-11157222D01*
X15016801Y-11157222D02*
X15016801Y-11261984D01*
X15016801Y-11157222D02*
X15026324Y-11138174D01*
X15026324Y-11138174D02*
X15045372Y-11128650D01*
X15045372Y-11128650D02*
X15073943Y-11128650D01*
X15073943Y-11128650D02*
X15092991Y-11138174D01*
X15092991Y-11138174D02*
X15102515Y-11157222D01*
X15102515Y-11157222D02*
X15102515Y-11261984D01*
X15492991Y-11052460D02*
X15321563Y-11309603D01*
X15750134Y-11061984D02*
X15769182Y-11061984D01*
X15769182Y-11061984D02*
X15788229Y-11071508D01*
X15788229Y-11071508D02*
X15797753Y-11081031D01*
X15797753Y-11081031D02*
X15807277Y-11100079D01*
X15807277Y-11100079D02*
X15816801Y-11138174D01*
X15816801Y-11138174D02*
X15816801Y-11185793D01*
X15816801Y-11185793D02*
X15807277Y-11223888D01*
X15807277Y-11223888D02*
X15797753Y-11242936D01*
X15797753Y-11242936D02*
X15788229Y-11252460D01*
X15788229Y-11252460D02*
X15769182Y-11261984D01*
X15769182Y-11261984D02*
X15750134Y-11261984D01*
X15750134Y-11261984D02*
X15731086Y-11252460D01*
X15731086Y-11252460D02*
X15721563Y-11242936D01*
X15721563Y-11242936D02*
X15712039Y-11223888D01*
X15712039Y-11223888D02*
X15702515Y-11185793D01*
X15702515Y-11185793D02*
X15702515Y-11138174D01*
X15702515Y-11138174D02*
X15712039Y-11100079D01*
X15712039Y-11100079D02*
X15721563Y-11081031D01*
X15721563Y-11081031D02*
X15731086Y-11071508D01*
X15731086Y-11071508D02*
X15750134Y-11061984D01*
X15902515Y-11242936D02*
X15912039Y-11252460D01*
X15912039Y-11252460D02*
X15902515Y-11261984D01*
X15902515Y-11261984D02*
X15892991Y-11252460D01*
X15892991Y-11252460D02*
X15902515Y-11242936D01*
X15902515Y-11242936D02*
X15902515Y-11261984D01*
X16035848Y-11061984D02*
X16054896Y-11061984D01*
X16054896Y-11061984D02*
X16073944Y-11071508D01*
X16073944Y-11071508D02*
X16083467Y-11081031D01*
X16083467Y-11081031D02*
X16092991Y-11100079D01*
X16092991Y-11100079D02*
X16102515Y-11138174D01*
X16102515Y-11138174D02*
X16102515Y-11185793D01*
X16102515Y-11185793D02*
X16092991Y-11223888D01*
X16092991Y-11223888D02*
X16083467Y-11242936D01*
X16083467Y-11242936D02*
X16073944Y-11252460D01*
X16073944Y-11252460D02*
X16054896Y-11261984D01*
X16054896Y-11261984D02*
X16035848Y-11261984D01*
X16035848Y-11261984D02*
X16016801Y-11252460D01*
X16016801Y-11252460D02*
X16007277Y-11242936D01*
X16007277Y-11242936D02*
X15997753Y-11223888D01*
X15997753Y-11223888D02*
X15988229Y-11185793D01*
X15988229Y-11185793D02*
X15988229Y-11138174D01*
X15988229Y-11138174D02*
X15997753Y-11100079D01*
X15997753Y-11100079D02*
X16007277Y-11081031D01*
X16007277Y-11081031D02*
X16016801Y-11071508D01*
X16016801Y-11071508D02*
X16035848Y-11061984D01*
X16169182Y-11061984D02*
X16302515Y-11061984D01*
X16302515Y-11061984D02*
X16216801Y-11261984D01*
X16407277Y-11147698D02*
X16388229Y-11138174D01*
X16388229Y-11138174D02*
X16378706Y-11128650D01*
X16378706Y-11128650D02*
X16369182Y-11109603D01*
X16369182Y-11109603D02*
X16369182Y-11100079D01*
X16369182Y-11100079D02*
X16378706Y-11081031D01*
X16378706Y-11081031D02*
X16388229Y-11071508D01*
X16388229Y-11071508D02*
X16407277Y-11061984D01*
X16407277Y-11061984D02*
X16445372Y-11061984D01*
X16445372Y-11061984D02*
X16464420Y-11071508D01*
X16464420Y-11071508D02*
X16473944Y-11081031D01*
X16473944Y-11081031D02*
X16483467Y-11100079D01*
X16483467Y-11100079D02*
X16483467Y-11109603D01*
X16483467Y-11109603D02*
X16473944Y-11128650D01*
X16473944Y-11128650D02*
X16464420Y-11138174D01*
X16464420Y-11138174D02*
X16445372Y-11147698D01*
X16445372Y-11147698D02*
X16407277Y-11147698D01*
X16407277Y-11147698D02*
X16388229Y-11157222D01*
X16388229Y-11157222D02*
X16378706Y-11166746D01*
X16378706Y-11166746D02*
X16369182Y-11185793D01*
X16369182Y-11185793D02*
X16369182Y-11223888D01*
X16369182Y-11223888D02*
X16378706Y-11242936D01*
X16378706Y-11242936D02*
X16388229Y-11252460D01*
X16388229Y-11252460D02*
X16407277Y-11261984D01*
X16407277Y-11261984D02*
X16445372Y-11261984D01*
X16445372Y-11261984D02*
X16464420Y-11252460D01*
X16464420Y-11252460D02*
X16473944Y-11242936D01*
X16473944Y-11242936D02*
X16483467Y-11223888D01*
X16483467Y-11223888D02*
X16483467Y-11185793D01*
X16483467Y-11185793D02*
X16473944Y-11166746D01*
X16473944Y-11166746D02*
X16464420Y-11157222D01*
X16464420Y-11157222D02*
X16445372Y-11147698D01*
X16550134Y-11061984D02*
X16683467Y-11061984D01*
X16683467Y-11061984D02*
X16597753Y-11261984D01*
X16750134Y-11061984D02*
X16750134Y-11100079D01*
X16826325Y-11061984D02*
X16826325Y-11100079D01*
X17121563Y-11338174D02*
X17112039Y-11328650D01*
X17112039Y-11328650D02*
X17092991Y-11300079D01*
X17092991Y-11300079D02*
X17083468Y-11281031D01*
X17083468Y-11281031D02*
X17073944Y-11252460D01*
X17073944Y-11252460D02*
X17064420Y-11204841D01*
X17064420Y-11204841D02*
X17064420Y-11166746D01*
X17064420Y-11166746D02*
X17073944Y-11119127D01*
X17073944Y-11119127D02*
X17083468Y-11090555D01*
X17083468Y-11090555D02*
X17092991Y-11071508D01*
X17092991Y-11071508D02*
X17112039Y-11042936D01*
X17112039Y-11042936D02*
X17121563Y-11033412D01*
X17188230Y-11081031D02*
X17197753Y-11071508D01*
X17197753Y-11071508D02*
X17216801Y-11061984D01*
X17216801Y-11061984D02*
X17264420Y-11061984D01*
X17264420Y-11061984D02*
X17283468Y-11071508D01*
X17283468Y-11071508D02*
X17292991Y-11081031D01*
X17292991Y-11081031D02*
X17302515Y-11100079D01*
X17302515Y-11100079D02*
X17302515Y-11119127D01*
X17302515Y-11119127D02*
X17292991Y-11147698D01*
X17292991Y-11147698D02*
X17178706Y-11261984D01*
X17178706Y-11261984D02*
X17302515Y-11261984D01*
X17540611Y-11261984D02*
X17540611Y-11061984D01*
X17626325Y-11261984D02*
X17626325Y-11157222D01*
X17626325Y-11157222D02*
X17616801Y-11138174D01*
X17616801Y-11138174D02*
X17597753Y-11128650D01*
X17597753Y-11128650D02*
X17569182Y-11128650D01*
X17569182Y-11128650D02*
X17550134Y-11138174D01*
X17550134Y-11138174D02*
X17540611Y-11147698D01*
X17750134Y-11261984D02*
X17731087Y-11252460D01*
X17731087Y-11252460D02*
X17721563Y-11242936D01*
X17721563Y-11242936D02*
X17712039Y-11223888D01*
X17712039Y-11223888D02*
X17712039Y-11166746D01*
X17712039Y-11166746D02*
X17721563Y-11147698D01*
X17721563Y-11147698D02*
X17731087Y-11138174D01*
X17731087Y-11138174D02*
X17750134Y-11128650D01*
X17750134Y-11128650D02*
X17778706Y-11128650D01*
X17778706Y-11128650D02*
X17797753Y-11138174D01*
X17797753Y-11138174D02*
X17807277Y-11147698D01*
X17807277Y-11147698D02*
X17816801Y-11166746D01*
X17816801Y-11166746D02*
X17816801Y-11223888D01*
X17816801Y-11223888D02*
X17807277Y-11242936D01*
X17807277Y-11242936D02*
X17797753Y-11252460D01*
X17797753Y-11252460D02*
X17778706Y-11261984D01*
X17778706Y-11261984D02*
X17750134Y-11261984D01*
X17931087Y-11261984D02*
X17912039Y-11252460D01*
X17912039Y-11252460D02*
X17902515Y-11233412D01*
X17902515Y-11233412D02*
X17902515Y-11061984D01*
X18083468Y-11252460D02*
X18064420Y-11261984D01*
X18064420Y-11261984D02*
X18026325Y-11261984D01*
X18026325Y-11261984D02*
X18007277Y-11252460D01*
X18007277Y-11252460D02*
X17997753Y-11233412D01*
X17997753Y-11233412D02*
X17997753Y-11157222D01*
X17997753Y-11157222D02*
X18007277Y-11138174D01*
X18007277Y-11138174D02*
X18026325Y-11128650D01*
X18026325Y-11128650D02*
X18064420Y-11128650D01*
X18064420Y-11128650D02*
X18083468Y-11138174D01*
X18083468Y-11138174D02*
X18092992Y-11157222D01*
X18092992Y-11157222D02*
X18092992Y-11176270D01*
X18092992Y-11176270D02*
X17997753Y-11195317D01*
X18169182Y-11252460D02*
X18188230Y-11261984D01*
X18188230Y-11261984D02*
X18226325Y-11261984D01*
X18226325Y-11261984D02*
X18245373Y-11252460D01*
X18245373Y-11252460D02*
X18254896Y-11233412D01*
X18254896Y-11233412D02*
X18254896Y-11223888D01*
X18254896Y-11223888D02*
X18245373Y-11204841D01*
X18245373Y-11204841D02*
X18226325Y-11195317D01*
X18226325Y-11195317D02*
X18197753Y-11195317D01*
X18197753Y-11195317D02*
X18178706Y-11185793D01*
X18178706Y-11185793D02*
X18169182Y-11166746D01*
X18169182Y-11166746D02*
X18169182Y-11157222D01*
X18169182Y-11157222D02*
X18178706Y-11138174D01*
X18178706Y-11138174D02*
X18197753Y-11128650D01*
X18197753Y-11128650D02*
X18226325Y-11128650D01*
X18226325Y-11128650D02*
X18245373Y-11138174D01*
X18321563Y-11338174D02*
X18331087Y-11328650D01*
X18331087Y-11328650D02*
X18350134Y-11300079D01*
X18350134Y-11300079D02*
X18359658Y-11281031D01*
X18359658Y-11281031D02*
X18369182Y-11252460D01*
X18369182Y-11252460D02*
X18378706Y-11204841D01*
X18378706Y-11204841D02*
X18378706Y-11166746D01*
X18378706Y-11166746D02*
X18369182Y-11119127D01*
X18369182Y-11119127D02*
X18359658Y-11090555D01*
X18359658Y-11090555D02*
X18350134Y-11071508D01*
X18350134Y-11071508D02*
X18331087Y-11042936D01*
X18331087Y-11042936D02*
X18321563Y-11033412D01*
M02*
