M48
; DRILL file {KiCad 8.0.5} date 2025-01-23T11:22:31+0100
; FORMAT={-:-/ absolute / inch / decimal}
; #@! TF.CreationDate,2025-01-23T11:22:31+01:00
; #@! TF.GenerationSoftware,Kicad,Pcbnew,8.0.5
; #@! TF.FileFunction,MixedPlating,1,2
FMAT,2
INCH
; #@! TA.AperFunction,Plated,PTH,ViaDrill
T1C0.0118
; #@! TA.AperFunction,Plated,PTH,ComponentDrill
T2C0.0394
; #@! TA.AperFunction,Plated,PTH,ComponentDrill
T3C0.0787
%
G90
G05
T1
X5.5079Y-2.9685
X5.9291Y-3.2126
X6.0443Y-3.0827
X6.122Y-3.8299
X6.2378Y-3.5071
X6.239Y-3.3264
X6.3878Y-3.0165
X6.4083Y-3.4209
X6.4169Y-3.2189
X6.4169Y-3.2571
X6.4449Y-3.4469
X6.4539Y-3.2181
X6.4539Y-3.2563
X6.4567Y-3.4094
X6.4654Y-3.0311
X6.4654Y-3.1685
X6.4736Y-3.3154
X6.4736Y-3.3394
X6.4744Y-3.3626
X6.4894Y-3.2571
X6.4902Y-3.2169
X6.4902Y-3.4087
X6.4929Y-3.4461
X6.5039Y-3.3386
X6.5043Y-3.3146
X6.5043Y-3.3622
X6.5236Y-3.4087
X6.5268Y-3.2169
X6.5268Y-3.2543
X6.5283Y-3.098
X6.5358Y-3.772
X6.5406Y-3.4469
X6.5717Y-3.0067
X6.6177Y-3.1976
X6.6425Y-3.1173
X6.678Y-3.0752
X6.7594Y-3.3339
X6.7618Y-3.2531
X6.8098Y-3.7661
X6.8327Y-3.4398
X6.8661Y-3.0256
X6.8886Y-3.4866
X6.9075Y-3.4303
T2
X5.4043Y-3.7638
X5.4043Y-3.8638
X6.8886Y-3.5661
X6.8886Y-3.6661
X6.8886Y-3.7661
X6.8886Y-3.8661
T3
X5.7112Y-3.4209
X6.1049Y-3.4209
M30
