%TF.GenerationSoftware,KiCad,Pcbnew,8.0.5*%
%TF.CreationDate,2025-01-23T11:22:46+01:00*%
%TF.ProjectId,PPP_v3_2,5050505f-7633-45f3-922e-6b696361645f,rev?*%
%TF.SameCoordinates,Original*%
%TF.FileFunction,Copper,L2,Bot*%
%TF.FilePolarity,Positive*%
%FSLAX46Y46*%
G04 Gerber Fmt 4.6, Leading zero omitted, Abs format (unit mm)*
G04 Created by KiCad (PCBNEW 8.0.5) date 2025-01-23 11:22:46*
%MOMM*%
%LPD*%
G01*
G04 APERTURE LIST*
%TA.AperFunction,ComponentPad*%
%ADD10R,1.700000X1.700000*%
%TD*%
%TA.AperFunction,ComponentPad*%
%ADD11O,1.700000X1.700000*%
%TD*%
%TA.AperFunction,ComponentPad*%
%ADD12R,4.000000X4.000000*%
%TD*%
%TA.AperFunction,ComponentPad*%
%ADD13C,4.000000*%
%TD*%
%TA.AperFunction,ViaPad*%
%ADD14C,0.600000*%
%TD*%
%TA.AperFunction,Conductor*%
%ADD15C,0.200000*%
%TD*%
G04 APERTURE END LIST*
D10*
%TO.P,J1,1,Pin_1*%
%TO.N,Net-(J1-Pin_1)*%
X137270000Y-98140000D03*
D11*
%TO.P,J1,2,Pin_2*%
%TO.N,GND*%
X137270000Y-95600000D03*
%TD*%
D12*
%TO.P,C1,1*%
%TO.N,Net-(D1-K)*%
X155065371Y-86890000D03*
D13*
%TO.P,C1,2*%
%TO.N,GND*%
X145065371Y-86890000D03*
%TD*%
D10*
%TO.P,J2,1,Pin_1*%
%TO.N,Net-(J2-Pin_1)*%
X174970000Y-90580000D03*
D11*
%TO.P,J2,2,Pin_2*%
%TO.N,/SH_DOWN*%
X174970000Y-93120000D03*
%TO.P,J2,3,Pin_3*%
%TO.N,Net-(J2-Pin_3)*%
X174970000Y-95660000D03*
%TO.P,J2,4,Pin_4*%
%TO.N,GND*%
X174970000Y-98200000D03*
%TD*%
D14*
%TO.N,GND*%
X164220000Y-76990000D03*
X163930000Y-82710000D03*
X164830000Y-82730000D03*
X158440000Y-89080000D03*
X165210000Y-84190000D03*
X165780000Y-81710000D03*
X164450000Y-85410000D03*
X168720000Y-79180000D03*
X169620000Y-78110000D03*
X164430000Y-84210000D03*
X165700000Y-86580000D03*
X165210000Y-85400000D03*
X158470000Y-84490000D03*
X164850000Y-81710000D03*
X174400000Y-76850000D03*
X150600000Y-81600000D03*
X155500000Y-97280000D03*
X164220000Y-80480000D03*
X164920000Y-87530000D03*
X164000000Y-86600000D03*
X175450000Y-87130000D03*
X162990000Y-82730000D03*
X162990000Y-81760000D03*
X163700000Y-87550000D03*
X153525000Y-78300000D03*
X162770000Y-86890000D03*
X163930000Y-81740000D03*
X165780000Y-82660000D03*
X164430000Y-84820000D03*
X166010000Y-95810000D03*
X165820000Y-78690000D03*
X171690000Y-84680000D03*
X164850000Y-86580000D03*
X166130000Y-87550000D03*
X165200000Y-84800000D03*
%TO.N,Net-(D1-A)*%
X168090000Y-81220000D03*
X139900000Y-75400000D03*
%TO.N,Net-(J2-Pin_1)*%
X173550000Y-87370000D03*
X174970000Y-88560000D03*
X166920000Y-76370000D03*
X162250000Y-76620000D03*
%TO.N,Net-(J2-Pin_3)*%
X172970000Y-95660000D03*
X171750000Y-82630000D03*
%TD*%
D15*
%TO.N,Net-(D1-A)*%
X140650000Y-74650000D02*
X139900000Y-75400000D01*
X168090000Y-80850000D02*
X168110000Y-80830000D01*
X168110000Y-76120000D02*
X166640000Y-74650000D01*
X168110000Y-80830000D02*
X168110000Y-76120000D01*
X168090000Y-81220000D02*
X168090000Y-80850000D01*
X166640000Y-74650000D02*
X140650000Y-74650000D01*
%TO.N,Net-(J2-Pin_1)*%
X174970000Y-88560000D02*
X173780000Y-87370000D01*
X166920000Y-76370000D02*
X162500000Y-76370000D01*
X173780000Y-87370000D02*
X173550000Y-87370000D01*
X162500000Y-76370000D02*
X162250000Y-76620000D01*
%TO.N,Net-(J2-Pin_3)*%
X172940000Y-83140000D02*
X171750000Y-82630000D01*
X172970000Y-95660000D02*
X172940000Y-83140000D01*
%TD*%
%TA.AperFunction,Conductor*%
%TO.N,GND*%
G36*
X139463563Y-74520185D02*
G01*
X139509318Y-74572989D01*
X139519262Y-74642147D01*
X139490237Y-74705703D01*
X139462496Y-74729494D01*
X139397737Y-74770184D01*
X139270184Y-74897737D01*
X139174211Y-75050476D01*
X139114631Y-75220745D01*
X139114630Y-75220750D01*
X139094435Y-75399996D01*
X139094435Y-75400003D01*
X139114630Y-75579249D01*
X139114631Y-75579254D01*
X139174211Y-75749523D01*
X139227689Y-75834632D01*
X139270184Y-75902262D01*
X139397738Y-76029816D01*
X139550478Y-76125789D01*
X139720745Y-76185368D01*
X139720750Y-76185369D01*
X139899996Y-76205565D01*
X139900000Y-76205565D01*
X139900004Y-76205565D01*
X140079249Y-76185369D01*
X140079252Y-76185368D01*
X140079255Y-76185368D01*
X140249522Y-76125789D01*
X140402262Y-76029816D01*
X140529816Y-75902262D01*
X140625789Y-75749522D01*
X140685368Y-75579255D01*
X140695161Y-75492329D01*
X140722226Y-75427918D01*
X140730679Y-75418554D01*
X140862417Y-75286817D01*
X140923740Y-75253334D01*
X140950097Y-75250500D01*
X166339903Y-75250500D01*
X166406942Y-75270185D01*
X166427584Y-75286819D01*
X166592256Y-75451491D01*
X166625741Y-75512814D01*
X166620757Y-75582506D01*
X166578885Y-75638439D01*
X166570548Y-75644165D01*
X166417739Y-75740183D01*
X166414903Y-75742445D01*
X166412722Y-75743335D01*
X166411843Y-75743888D01*
X166411746Y-75743733D01*
X166350217Y-75768855D01*
X166337588Y-75769500D01*
X162420940Y-75769500D01*
X162380019Y-75780464D01*
X162380019Y-75780465D01*
X162268216Y-75810423D01*
X162264574Y-75811399D01*
X162246364Y-75814844D01*
X162070749Y-75834630D01*
X162070745Y-75834631D01*
X161900476Y-75894211D01*
X161747737Y-75990184D01*
X161620184Y-76117737D01*
X161524211Y-76270476D01*
X161464631Y-76440745D01*
X161464630Y-76440750D01*
X161444435Y-76619996D01*
X161444435Y-76620003D01*
X161464630Y-76799249D01*
X161464631Y-76799254D01*
X161524211Y-76969523D01*
X161603549Y-77095788D01*
X161620184Y-77122262D01*
X161747738Y-77249816D01*
X161900478Y-77345789D01*
X162070745Y-77405368D01*
X162070750Y-77405369D01*
X162249996Y-77425565D01*
X162250000Y-77425565D01*
X162250004Y-77425565D01*
X162429249Y-77405369D01*
X162429252Y-77405368D01*
X162429255Y-77405368D01*
X162599522Y-77345789D01*
X162752262Y-77249816D01*
X162879816Y-77122262D01*
X162938713Y-77028528D01*
X162991048Y-76982237D01*
X163043707Y-76970500D01*
X166337588Y-76970500D01*
X166404627Y-76990185D01*
X166414903Y-76997555D01*
X166417736Y-76999814D01*
X166417738Y-76999816D01*
X166570478Y-77095789D01*
X166740745Y-77155368D01*
X166740750Y-77155369D01*
X166919996Y-77175565D01*
X166920000Y-77175565D01*
X166920004Y-77175565D01*
X167099249Y-77155369D01*
X167099252Y-77155368D01*
X167099255Y-77155368D01*
X167269522Y-77095789D01*
X167319527Y-77064369D01*
X167386764Y-77045368D01*
X167453599Y-77065735D01*
X167498814Y-77119003D01*
X167509500Y-77169362D01*
X167509500Y-80617060D01*
X167489815Y-80684099D01*
X167473181Y-80704741D01*
X167460184Y-80717737D01*
X167364211Y-80870476D01*
X167304631Y-81040745D01*
X167304630Y-81040750D01*
X167284435Y-81219996D01*
X167284435Y-81220003D01*
X167304630Y-81399249D01*
X167304631Y-81399254D01*
X167364211Y-81569523D01*
X167460184Y-81722262D01*
X167587738Y-81849816D01*
X167740478Y-81945789D01*
X167895930Y-82000184D01*
X167910745Y-82005368D01*
X167910750Y-82005369D01*
X168089996Y-82025565D01*
X168090000Y-82025565D01*
X168090004Y-82025565D01*
X168269249Y-82005369D01*
X168269252Y-82005368D01*
X168269255Y-82005368D01*
X168439522Y-81945789D01*
X168592262Y-81849816D01*
X168719816Y-81722262D01*
X168815789Y-81569522D01*
X168875368Y-81399255D01*
X168895565Y-81220000D01*
X168875368Y-81040745D01*
X168815789Y-80870478D01*
X168729506Y-80733159D01*
X168710500Y-80667187D01*
X168710500Y-76209059D01*
X168710501Y-76209046D01*
X168710501Y-76040945D01*
X168710501Y-76040943D01*
X168669577Y-75888215D01*
X168624664Y-75810424D01*
X168601037Y-75769500D01*
X168590521Y-75751285D01*
X168474385Y-75635149D01*
X168474374Y-75635139D01*
X167551416Y-74712181D01*
X167517931Y-74650858D01*
X167522915Y-74581166D01*
X167564787Y-74525233D01*
X167630251Y-74500816D01*
X167639097Y-74500500D01*
X176375500Y-74500500D01*
X176442539Y-74520185D01*
X176488294Y-74572989D01*
X176499500Y-74624500D01*
X176499500Y-89433500D01*
X176479815Y-89500539D01*
X176427011Y-89546294D01*
X176357853Y-89556238D01*
X176294297Y-89527213D01*
X176266670Y-89492930D01*
X176263797Y-89487669D01*
X176177547Y-89372455D01*
X176177544Y-89372452D01*
X176062335Y-89286206D01*
X176062328Y-89286202D01*
X175927482Y-89235908D01*
X175927483Y-89235908D01*
X175867883Y-89229501D01*
X175867881Y-89229500D01*
X175867873Y-89229500D01*
X175867865Y-89229500D01*
X175719095Y-89229500D01*
X175652056Y-89209815D01*
X175606301Y-89157011D01*
X175596357Y-89087853D01*
X175614101Y-89039528D01*
X175648220Y-88985226D01*
X175695789Y-88909522D01*
X175755368Y-88739255D01*
X175765162Y-88652330D01*
X175775565Y-88560003D01*
X175775565Y-88559996D01*
X175755369Y-88380750D01*
X175755368Y-88380745D01*
X175695788Y-88210476D01*
X175656582Y-88148080D01*
X175599816Y-88057738D01*
X175472262Y-87930184D01*
X175408310Y-87890000D01*
X175319521Y-87834210D01*
X175171849Y-87782538D01*
X175149255Y-87774632D01*
X175149254Y-87774631D01*
X175149249Y-87774630D01*
X175062330Y-87764837D01*
X174997916Y-87737770D01*
X174988533Y-87729298D01*
X174279034Y-87019799D01*
X174261721Y-86998090D01*
X174193807Y-86890005D01*
X174179816Y-86867738D01*
X174052262Y-86740184D01*
X173899523Y-86644211D01*
X173729252Y-86584631D01*
X173658556Y-86576665D01*
X173594143Y-86549598D01*
X173554588Y-86492003D01*
X173548441Y-86453742D01*
X173540624Y-83191338D01*
X173541890Y-83173376D01*
X173545636Y-83147385D01*
X173541268Y-83110763D01*
X173540396Y-83096400D01*
X173540309Y-83059504D01*
X173533451Y-83034154D01*
X173530022Y-83016464D01*
X173526912Y-82990382D01*
X173526911Y-82990380D01*
X173526911Y-82990378D01*
X173513214Y-82956135D01*
X173508648Y-82942466D01*
X173504171Y-82925919D01*
X173499020Y-82906876D01*
X173485833Y-82884161D01*
X173477940Y-82867956D01*
X173468189Y-82843577D01*
X173446101Y-82814053D01*
X173438152Y-82802030D01*
X173419634Y-82770133D01*
X173401016Y-82751604D01*
X173389199Y-82737995D01*
X173373470Y-82716971D01*
X173366227Y-82711272D01*
X173344492Y-82694169D01*
X173333710Y-82684619D01*
X173323828Y-82674784D01*
X173307565Y-82658598D01*
X173284782Y-82645517D01*
X173269848Y-82635432D01*
X173249214Y-82619196D01*
X173249213Y-82619195D01*
X173215310Y-82604665D01*
X173202422Y-82598230D01*
X173170443Y-82579869D01*
X173170439Y-82579868D01*
X173145057Y-82573131D01*
X173128022Y-82567255D01*
X172517585Y-82305639D01*
X172463720Y-82261138D01*
X172461437Y-82257637D01*
X172379815Y-82127737D01*
X172252262Y-82000184D01*
X172099523Y-81904211D01*
X171929254Y-81844631D01*
X171929249Y-81844630D01*
X171750004Y-81824435D01*
X171749996Y-81824435D01*
X171570750Y-81844630D01*
X171570745Y-81844631D01*
X171400476Y-81904211D01*
X171247737Y-82000184D01*
X171120184Y-82127737D01*
X171024211Y-82280476D01*
X170964631Y-82450745D01*
X170964630Y-82450750D01*
X170944435Y-82629996D01*
X170944435Y-82630003D01*
X170964630Y-82809249D01*
X170964631Y-82809254D01*
X171024211Y-82979523D01*
X171102176Y-83103603D01*
X171120184Y-83132262D01*
X171247738Y-83259816D01*
X171400478Y-83355789D01*
X171499811Y-83390547D01*
X171570745Y-83415368D01*
X171570750Y-83415369D01*
X171749996Y-83435565D01*
X171750000Y-83435565D01*
X171750004Y-83435565D01*
X171929247Y-83415369D01*
X171929248Y-83415368D01*
X171929255Y-83415368D01*
X171954689Y-83406467D01*
X172024465Y-83402904D01*
X172044486Y-83409532D01*
X172265489Y-83504248D01*
X172319353Y-83548748D01*
X172340608Y-83615306D01*
X172340642Y-83617924D01*
X172368105Y-95079039D01*
X172348581Y-95146125D01*
X172341057Y-95156642D01*
X172340188Y-95157730D01*
X172244211Y-95310476D01*
X172184631Y-95480745D01*
X172184630Y-95480750D01*
X172164435Y-95659996D01*
X172164435Y-95660003D01*
X172184630Y-95839249D01*
X172184631Y-95839254D01*
X172244211Y-96009523D01*
X172315931Y-96123664D01*
X172340184Y-96162262D01*
X172467738Y-96289816D01*
X172620478Y-96385789D01*
X172790745Y-96445368D01*
X172790750Y-96445369D01*
X172969996Y-96465565D01*
X172970000Y-96465565D01*
X172970004Y-96465565D01*
X173149249Y-96445369D01*
X173149252Y-96445368D01*
X173149255Y-96445368D01*
X173319522Y-96385789D01*
X173472262Y-96289816D01*
X173552534Y-96209543D01*
X173613853Y-96176061D01*
X173683545Y-96181045D01*
X173739479Y-96222916D01*
X173752594Y-96244821D01*
X173795967Y-96337834D01*
X173885406Y-96465565D01*
X173931505Y-96531401D01*
X174098599Y-96698495D01*
X174237720Y-96795909D01*
X174284594Y-96828730D01*
X174328219Y-96883307D01*
X174335413Y-96952805D01*
X174303890Y-97015160D01*
X174284595Y-97031880D01*
X174098922Y-97161890D01*
X174098920Y-97161891D01*
X173931891Y-97328920D01*
X173931886Y-97328926D01*
X173796400Y-97522420D01*
X173796399Y-97522422D01*
X173696570Y-97736507D01*
X173696567Y-97736513D01*
X173639364Y-97949999D01*
X173639364Y-97950000D01*
X174536988Y-97950000D01*
X174504075Y-98007007D01*
X174470000Y-98134174D01*
X174470000Y-98265826D01*
X174504075Y-98392993D01*
X174536988Y-98450000D01*
X173639364Y-98450000D01*
X173696567Y-98663486D01*
X173696570Y-98663492D01*
X173796399Y-98877578D01*
X173931894Y-99071082D01*
X174098921Y-99238109D01*
X174150072Y-99273926D01*
X174193697Y-99328503D01*
X174200889Y-99398001D01*
X174169366Y-99460356D01*
X174109136Y-99495769D01*
X174078948Y-99499500D01*
X138611515Y-99499500D01*
X138544476Y-99479815D01*
X138498721Y-99427011D01*
X138488777Y-99357853D01*
X138512248Y-99301189D01*
X138563796Y-99232331D01*
X138614091Y-99097483D01*
X138620500Y-99037873D01*
X138620499Y-97242128D01*
X138614091Y-97182517D01*
X138563796Y-97047669D01*
X138563795Y-97047668D01*
X138563793Y-97047664D01*
X138477547Y-96932455D01*
X138477544Y-96932452D01*
X138362335Y-96846206D01*
X138362328Y-96846202D01*
X138230401Y-96796997D01*
X138174467Y-96755126D01*
X138150050Y-96689662D01*
X138164902Y-96621389D01*
X138186053Y-96593133D01*
X138308108Y-96471078D01*
X138443600Y-96277578D01*
X138543429Y-96063492D01*
X138543432Y-96063486D01*
X138600636Y-95850000D01*
X137703012Y-95850000D01*
X137735925Y-95792993D01*
X137770000Y-95665826D01*
X137770000Y-95534174D01*
X137735925Y-95407007D01*
X137703012Y-95350000D01*
X138600636Y-95350000D01*
X138600635Y-95349999D01*
X138543432Y-95136513D01*
X138543429Y-95136507D01*
X138443600Y-94922422D01*
X138443599Y-94922420D01*
X138308113Y-94728926D01*
X138308108Y-94728920D01*
X138141082Y-94561894D01*
X137947578Y-94426399D01*
X137733492Y-94326570D01*
X137733486Y-94326567D01*
X137520000Y-94269364D01*
X137520000Y-95166988D01*
X137462993Y-95134075D01*
X137335826Y-95100000D01*
X137204174Y-95100000D01*
X137077007Y-95134075D01*
X137020000Y-95166988D01*
X137020000Y-94269364D01*
X136978513Y-94237530D01*
X136937311Y-94181101D01*
X136930000Y-94139154D01*
X136930000Y-86889994D01*
X142560428Y-86889994D01*
X142560428Y-86890005D01*
X142580178Y-87203942D01*
X142580179Y-87203949D01*
X142639126Y-87512958D01*
X142736334Y-87812132D01*
X142736336Y-87812137D01*
X142870271Y-88096761D01*
X142870274Y-88096767D01*
X143038828Y-88362367D01*
X143038831Y-88362371D01*
X143129657Y-88472160D01*
X144202797Y-87399020D01*
X144288620Y-87527463D01*
X144427908Y-87666751D01*
X144556349Y-87752573D01*
X143480342Y-88828579D01*
X143480343Y-88828581D01*
X143723143Y-89004985D01*
X143723161Y-89004996D01*
X143998818Y-89156540D01*
X143998826Y-89156544D01*
X144291297Y-89272340D01*
X144595991Y-89350573D01*
X144596000Y-89350575D01*
X144908072Y-89389999D01*
X144908086Y-89390000D01*
X145222656Y-89390000D01*
X145222669Y-89389999D01*
X145534741Y-89350575D01*
X145534750Y-89350573D01*
X145839444Y-89272340D01*
X146131915Y-89156544D01*
X146131923Y-89156540D01*
X146407580Y-89004996D01*
X146407590Y-89004990D01*
X146650397Y-88828579D01*
X146650398Y-88828579D01*
X145574391Y-87752573D01*
X145702834Y-87666751D01*
X145842122Y-87527463D01*
X145927944Y-87399021D01*
X147001083Y-88472160D01*
X147091915Y-88362364D01*
X147260467Y-88096767D01*
X147260470Y-88096761D01*
X147394405Y-87812137D01*
X147394407Y-87812132D01*
X147491615Y-87512958D01*
X147550562Y-87203949D01*
X147550563Y-87203942D01*
X147570314Y-86890005D01*
X147570314Y-86889994D01*
X147550563Y-86576057D01*
X147550562Y-86576050D01*
X147491615Y-86267041D01*
X147394407Y-85967867D01*
X147394405Y-85967862D01*
X147260470Y-85683238D01*
X147260467Y-85683232D01*
X147091913Y-85417632D01*
X147091910Y-85417628D01*
X147001083Y-85307838D01*
X145927943Y-86380977D01*
X145842122Y-86252537D01*
X145702834Y-86113249D01*
X145574391Y-86027426D01*
X146650398Y-84951419D01*
X146650397Y-84951417D01*
X146499983Y-84842135D01*
X152564871Y-84842135D01*
X152564871Y-88937870D01*
X152564872Y-88937876D01*
X152571279Y-88997483D01*
X152621573Y-89132328D01*
X152621577Y-89132335D01*
X152707823Y-89247544D01*
X152707826Y-89247547D01*
X152823035Y-89333793D01*
X152823042Y-89333797D01*
X152957888Y-89384091D01*
X152957887Y-89384091D01*
X152964815Y-89384835D01*
X153017498Y-89390500D01*
X157113243Y-89390499D01*
X157172854Y-89384091D01*
X157307702Y-89333796D01*
X157422917Y-89247546D01*
X157509167Y-89132331D01*
X157559462Y-88997483D01*
X157565871Y-88937873D01*
X157565870Y-84842128D01*
X157559462Y-84782517D01*
X157556659Y-84775003D01*
X157509168Y-84647671D01*
X157509164Y-84647664D01*
X157422918Y-84532455D01*
X157422915Y-84532452D01*
X157307706Y-84446206D01*
X157307699Y-84446202D01*
X157172853Y-84395908D01*
X157172854Y-84395908D01*
X157113254Y-84389501D01*
X157113252Y-84389500D01*
X157113244Y-84389500D01*
X157113235Y-84389500D01*
X153017500Y-84389500D01*
X153017494Y-84389501D01*
X152957887Y-84395908D01*
X152823042Y-84446202D01*
X152823035Y-84446206D01*
X152707826Y-84532452D01*
X152707823Y-84532455D01*
X152621577Y-84647664D01*
X152621573Y-84647671D01*
X152571279Y-84782517D01*
X152564872Y-84842116D01*
X152564872Y-84842123D01*
X152564871Y-84842135D01*
X146499983Y-84842135D01*
X146407598Y-84775014D01*
X146407580Y-84775003D01*
X146131923Y-84623459D01*
X146131915Y-84623455D01*
X145839444Y-84507659D01*
X145534750Y-84429426D01*
X145534741Y-84429424D01*
X145222669Y-84390000D01*
X144908072Y-84390000D01*
X144596000Y-84429424D01*
X144595991Y-84429426D01*
X144291297Y-84507659D01*
X143998826Y-84623455D01*
X143998818Y-84623459D01*
X143723158Y-84775004D01*
X143723153Y-84775007D01*
X143480343Y-84951418D01*
X143480342Y-84951419D01*
X144556350Y-86027426D01*
X144427908Y-86113249D01*
X144288620Y-86252537D01*
X144202797Y-86380978D01*
X143129657Y-85307838D01*
X143129656Y-85307838D01*
X143038830Y-85417629D01*
X143038828Y-85417632D01*
X142870274Y-85683232D01*
X142870271Y-85683238D01*
X142736336Y-85967862D01*
X142736334Y-85967867D01*
X142639126Y-86267041D01*
X142580179Y-86576050D01*
X142580178Y-86576057D01*
X142560428Y-86889994D01*
X136930000Y-86889994D01*
X136930000Y-74624500D01*
X136949685Y-74557461D01*
X137002489Y-74511706D01*
X137054000Y-74500500D01*
X139396524Y-74500500D01*
X139463563Y-74520185D01*
G37*
%TD.AperFunction*%
%TD*%
M02*
