%TF.GenerationSoftware,KiCad,Pcbnew,8.0.5*%
%TF.CreationDate,2025-01-23T11:22:46+01:00*%
%TF.ProjectId,PPP_v3_2,5050505f-7633-45f3-922e-6b696361645f,rev?*%
%TF.SameCoordinates,Original*%
%TF.FileFunction,Paste,Top*%
%TF.FilePolarity,Positive*%
%FSLAX46Y46*%
G04 Gerber Fmt 4.6, Leading zero omitted, Abs format (unit mm)*
G04 Created by KiCad (PCBNEW 8.0.5) date 2025-01-23 11:22:46*
%MOMM*%
%LPD*%
G01*
G04 APERTURE LIST*
G04 Aperture macros list*
%AMRoundRect*
0 Rectangle with rounded corners*
0 $1 Rounding radius*
0 $2 $3 $4 $5 $6 $7 $8 $9 X,Y pos of 4 corners*
0 Add a 4 corners polygon primitive as box body*
4,1,4,$2,$3,$4,$5,$6,$7,$8,$9,$2,$3,0*
0 Add four circle primitives for the rounded corners*
1,1,$1+$1,$2,$3*
1,1,$1+$1,$4,$5*
1,1,$1+$1,$6,$7*
1,1,$1+$1,$8,$9*
0 Add four rect primitives between the rounded corners*
20,1,$1+$1,$2,$3,$4,$5,0*
20,1,$1+$1,$4,$5,$6,$7,0*
20,1,$1+$1,$6,$7,$8,$9,0*
20,1,$1+$1,$8,$9,$2,$3,0*%
G04 Aperture macros list end*
%ADD10RoundRect,0.250000X0.337500X0.475000X-0.337500X0.475000X-0.337500X-0.475000X0.337500X-0.475000X0*%
%ADD11RoundRect,0.250000X-0.475000X0.337500X-0.475000X-0.337500X0.475000X-0.337500X0.475000X0.337500X0*%
%ADD12RoundRect,0.250000X0.475000X-0.337500X0.475000X0.337500X-0.475000X0.337500X-0.475000X-0.337500X0*%
%ADD13RoundRect,0.250000X-0.350000X-0.450000X0.350000X-0.450000X0.350000X0.450000X-0.350000X0.450000X0*%
%ADD14RoundRect,0.170000X-0.170000X-0.210000X0.170000X-0.210000X0.170000X0.210000X-0.170000X0.210000X0*%
%ADD15RoundRect,0.075000X-0.650000X-0.075000X0.650000X-0.075000X0.650000X0.075000X-0.650000X0.075000X0*%
%ADD16RoundRect,0.250001X1.074999X-0.462499X1.074999X0.462499X-1.074999X0.462499X-1.074999X-0.462499X0*%
%ADD17RoundRect,0.250000X0.350000X0.450000X-0.350000X0.450000X-0.350000X-0.450000X0.350000X-0.450000X0*%
%ADD18RoundRect,0.225000X-0.225000X-0.375000X0.225000X-0.375000X0.225000X0.375000X-0.225000X0.375000X0*%
%ADD19RoundRect,0.250000X0.650000X-0.412500X0.650000X0.412500X-0.650000X0.412500X-0.650000X-0.412500X0*%
%ADD20RoundRect,0.250000X-0.337500X-0.475000X0.337500X-0.475000X0.337500X0.475000X-0.337500X0.475000X0*%
%ADD21RoundRect,0.250000X-0.450000X0.350000X-0.450000X-0.350000X0.450000X-0.350000X0.450000X0.350000X0*%
%ADD22RoundRect,0.375000X0.375000X-0.625000X0.375000X0.625000X-0.375000X0.625000X-0.375000X-0.625000X0*%
%ADD23RoundRect,0.500000X1.400000X-0.500000X1.400000X0.500000X-1.400000X0.500000X-1.400000X-0.500000X0*%
%ADD24RoundRect,0.150000X-0.150000X0.587500X-0.150000X-0.587500X0.150000X-0.587500X0.150000X0.587500X0*%
%ADD25RoundRect,0.250000X0.450000X-0.350000X0.450000X0.350000X-0.450000X0.350000X-0.450000X-0.350000X0*%
%ADD26RoundRect,0.250000X-0.412500X-0.650000X0.412500X-0.650000X0.412500X0.650000X-0.412500X0.650000X0*%
%ADD27RoundRect,0.150000X0.150000X-0.587500X0.150000X0.587500X-0.150000X0.587500X-0.150000X-0.587500X0*%
%ADD28RoundRect,0.225000X0.225000X0.375000X-0.225000X0.375000X-0.225000X-0.375000X0.225000X-0.375000X0*%
%ADD29RoundRect,0.381000X-0.762000X-0.381000X0.762000X-0.381000X0.762000X0.381000X-0.762000X0.381000X0*%
G04 APERTURE END LIST*
D10*
%TO.C,C6*%
X160517500Y-85700000D03*
X158442500Y-85700000D03*
%TD*%
D11*
%TO.C,C2*%
X154370000Y-96145000D03*
X154370000Y-98220000D03*
%TD*%
D12*
%TO.C,C3*%
X156700000Y-98220000D03*
X156700000Y-96145000D03*
%TD*%
D13*
%TO.C,R13*%
X169600000Y-86050000D03*
X171600000Y-86050000D03*
%TD*%
D14*
%TO.C,U1*%
X164410000Y-84280000D03*
X164410000Y-85220000D03*
X165250000Y-84280000D03*
X165250000Y-85220000D03*
D15*
X162680000Y-83750000D03*
X162680000Y-84250000D03*
X162680000Y-84750000D03*
X162680000Y-85250000D03*
X162680000Y-85750000D03*
X166980000Y-85750000D03*
X166980000Y-85250000D03*
X166980000Y-84750000D03*
X166980000Y-84250000D03*
X166980000Y-83750000D03*
%TD*%
D13*
%TO.C,R3*%
X138670000Y-79900000D03*
X140670000Y-79900000D03*
%TD*%
D16*
%TO.C,L2*%
X158440000Y-80237500D03*
X158440000Y-77262500D03*
%TD*%
D17*
%TO.C,R11*%
X160440000Y-87810000D03*
X158440000Y-87810000D03*
%TD*%
D18*
%TO.C,D3*%
X140500000Y-91700000D03*
X143800000Y-91700000D03*
%TD*%
D19*
%TO.C,C5*%
X169400000Y-81802500D03*
X169400000Y-78677500D03*
%TD*%
D20*
%TO.C,C7*%
X169552500Y-88180000D03*
X171627500Y-88180000D03*
%TD*%
D21*
%TO.C,R10*%
X171720000Y-79310000D03*
X171720000Y-81310000D03*
%TD*%
D10*
%TO.C,C4*%
X160490000Y-82260000D03*
X158415000Y-82260000D03*
%TD*%
D22*
%TO.C,Q3*%
X161420000Y-97800000D03*
X163720000Y-97800000D03*
X166020000Y-97800000D03*
D23*
X163720000Y-91500000D03*
%TD*%
D13*
%TO.C,R6*%
X152550000Y-80425000D03*
X154550000Y-80425000D03*
%TD*%
D24*
%TO.C,Q1*%
X144650000Y-79800000D03*
X145600000Y-77925000D03*
X143700000Y-77925000D03*
%TD*%
D13*
%TO.C,R7*%
X148100000Y-84800000D03*
X150100000Y-84800000D03*
%TD*%
D25*
%TO.C,R14*%
X175680000Y-82760000D03*
X175680000Y-80760000D03*
%TD*%
D26*
%TO.C,C9*%
X161130000Y-78710000D03*
X164255000Y-78710000D03*
%TD*%
D18*
%TO.C,D2*%
X138200000Y-77700000D03*
X141500000Y-77700000D03*
%TD*%
D27*
%TO.C,Q4*%
X144600000Y-81900000D03*
X143650000Y-83775000D03*
X145550000Y-83775000D03*
%TD*%
D13*
%TO.C,R4*%
X148100000Y-82800000D03*
X150100000Y-82800000D03*
%TD*%
D25*
%TO.C,R2*%
X158910000Y-98160000D03*
X158910000Y-96160000D03*
%TD*%
D24*
%TO.C,Q2*%
X149850000Y-78302500D03*
X150800000Y-76427500D03*
X148900000Y-76427500D03*
%TD*%
D17*
%TO.C,R5*%
X150650000Y-80425000D03*
X148650000Y-80425000D03*
%TD*%
D28*
%TO.C,D1*%
X141450000Y-75400000D03*
X138150000Y-75400000D03*
%TD*%
D29*
%TO.C,L1*%
X142170000Y-95200000D03*
X142170000Y-97700000D03*
X151720000Y-97750000D03*
X151720000Y-95250000D03*
%TD*%
D27*
%TO.C,Q5*%
X139470000Y-81967500D03*
X138520000Y-83842500D03*
X140420000Y-83842500D03*
%TD*%
D17*
%TO.C,R9*%
X140400000Y-85900000D03*
X138400000Y-85900000D03*
%TD*%
D13*
%TO.C,R8*%
X138400000Y-88000000D03*
X140400000Y-88000000D03*
%TD*%
D20*
%TO.C,C8*%
X169615000Y-83980000D03*
X171690000Y-83980000D03*
%TD*%
D21*
%TO.C,R12*%
X175700000Y-76830000D03*
X175700000Y-78830000D03*
%TD*%
D27*
%TO.C,D4*%
X153540000Y-76425000D03*
X152590000Y-78300000D03*
X154490000Y-78300000D03*
%TD*%
D17*
%TO.C,R1*%
X145800000Y-75800000D03*
X143800000Y-75800000D03*
%TD*%
M02*
