<?xml version="1.0" encoding="UTF-8" standalone="no"?>
<!-- Created with Inkscape (http://www.inkscape.org/) -->

<svg
   width="120mm"
   height="120mm"
   viewBox="0 0 120 120"
   version="1.1"
   id="svg1"
   xml:space="preserve"
   inkscape:version="1.3.2 (091e20e, 2023-11-25)"
   sodipodi:docname="solarthief.svg"
   xmlns:inkscape="http://www.inkscape.org/namespaces/inkscape"
   xmlns:sodipodi="http://sodipodi.sourceforge.net/DTD/sodipodi-0.dtd"
   xmlns="http://www.w3.org/2000/svg"
   xmlns:svg="http://www.w3.org/2000/svg"><sodipodi:namedview
     id="namedview1"
     pagecolor="#ffffff"
     bordercolor="#000000"
     borderopacity="0.25"
     inkscape:showpageshadow="2"
     inkscape:pageopacity="0.0"
     inkscape:pagecheckerboard="0"
     inkscape:deskcolor="#d1d1d1"
     inkscape:document-units="mm"
     inkscape:zoom="0.42555354"
     inkscape:cx="89.295461"
     inkscape:cy="180.9408"
     inkscape:window-width="1312"
     inkscape:window-height="429"
     inkscape:window-x="0"
     inkscape:window-y="38"
     inkscape:window-maximized="0"
     inkscape:current-layer="layer1" /><defs
     id="defs1" /><g
     inkscape:label="Layer 1"
     inkscape:groupmode="layer"
     id="layer1"
     transform="translate(-45,-92.385056)"><rect
       style="fill:#000000;fill-opacity:0.803922;fill-rule:evenodd;stroke:#666666;stroke-width:1.91011;stroke-linecap:square;stroke-miterlimit:3.3;stroke-dashoffset:2.17323;paint-order:stroke markers fill"
       id="rect1"
       width="118.08989"
       height="118.08989"
       x="45.955055"
       y="93.340111"
       rx="0.1777757"
       ry="2.8363252" /><path
       style="fill:#f9f9f9"
       d="m 63.046622,203.02834 c 1.28753,0.0188 7.00918,-0.62493 9.43588,-1.06163 l 1.5875,-0.28569 1.32292,-2.40704 c 1.65662,-3.01422 2.635026,-4.3942 4.41574,-6.22815 1.514111,-1.55937 4.305263,-3.49014 7.695541,-5.41513 3.777821,-2.14503 8.299567,-4.28289 12.627257,-5.89172 2.56423,-0.95326 4.32413,-1.76364 4.69635,-2.16252 0.70474,-0.75521 0.79996,-2.35564 0.20823,-3.49993 -0.76367,-1.47677 -1.43114,-1.43737 -6.658648,0.39306 -2.30948,0.80868 -4.07999,1.3646 -3.93447,1.23538 0.14552,-0.12921 1.21632,-0.99921 2.37955,-1.93334 1.16324,-0.93412 3.394538,-2.84557 4.958438,-4.24767 2.39028,-2.14296 3.02329,-2.57624 3.97167,-2.71846 1.5212,-0.22811 3.80836,-1.57438 4.443,-2.61523 0.59419,-0.97451 0.64803,-2.20946 0.2214,-5.07794 -0.41946,-2.82023 0.0944,-4.21927 2.5301,-5.60179 0.59288,-0.33652 1.29962,-0.67207 2.13449,-1.02689 0.94525,-0.40174 1.71645,-0.80187 1.71345,-0.88917 -0.006,-0.18715 -4.46307,-3.0305 -4.94272,-3.15325 -0.48784,-0.12484 -2.42049,1.29015 -3.84949,2.8184 -1.22587,1.31101 -1.25647,1.385 -1.25147,3.00904 0.003,0.91574 0.29819,2.79607 0.65616,4.17852 0.35796,1.38245 0.65315,3.15563 0.65615,3.9404 0.005,1.35662 -0.058,1.49013 -1.27981,2.71198 -0.70682,0.70682 -1.42119,1.28512 -1.5875,1.28512 -0.16999,0 -0.30238,-0.41118 -0.30238,-0.93918 0,-1.77529 -1.09499,-3.02957 -2.64481,-3.02957 -0.27154,0 -2.00404,1.31926 -3.850008,2.93169 -3.30858,2.88999 -7.18883,6.06414 -7.41314,6.06414 -0.25284,0 -0.06503,-0.2795 1.09664,-1.63204 2.82905,-3.29387 5.48638,-8.00778 6.32143,-11.21377 0.35334,-1.35657 0.35148,-1.60567 -0.0178,-2.38387 -0.23804,-0.50164 -0.79611,-1.05111 -1.32009,-1.29975 -1.59475,-0.75676 -2.08947,-0.28664 -4.21076,4.00144 -1.9894,4.02145 -4.8072,8.01995 -6.9698,9.89023 -1.50091,1.29803 -4.88496,3.04467 -6.39237,3.29934 -1.59246,0.26905 -3.80601,-0.0752 -4.79157,-0.74509 -1.60853,-1.09339 -1.89654,-2.10153 -2.09414,-7.33026 -0.13597,-3.59805 -0.27284,-4.82204 -0.58982,-5.27459 -1.12687,-1.60883 -3.03892,-1.88785 -4.18062,-0.61006 -0.78778,0.88168 -0.69984,0.24256 -1.70248,12.37238 l -0.63425,7.67292 -1.34015,5.39847 -1.34015,5.39847 c -2.85228,11.48966 -2.82686,11.28342 -1.45926,11.83776 0.2961,0.12002 1.05471,0.22599 1.68581,0.23499 z m 62.642608,-32.44669 c 0.88078,-1.76987 0.72699,-2.49387 -1.01875,-4.79604 -2.00194,-2.64001 -2.31204,-3.24139 -2.31304,-4.48702 -10e-4,-1.43832 0.52892,-2.70282 1.88791,-4.50278 0.59225,-0.78443 0.97508,-1.52033 0.85073,-1.63532 -0.12434,-0.115 -1.44821,-0.29189 -2.94191,-0.39309 l -2.71583,-0.184 -0.82151,1.75553 c -1.04888,2.2414 -1.29988,4.6529 -0.62214,5.97723 0.2559,0.50003 1.5652,2.04025 2.90955,3.4227 1.34435,1.38244 2.57825,2.7736 2.74199,3.09146 0.42544,0.82583 0.36968,1.74944 -0.20113,3.33129 -0.27437,0.76035 -0.58164,1.62058 -0.68284,1.91162 -0.33711,0.96961 2.232,-2.09509 2.92697,-3.49158 z m 15.09142,-1.59934 c 0.21631,1.13054 0.5468,0.63366 0.90254,-1.35694 0.64309,-3.59849 -0.064,-4.73159 -3.98497,-6.38613 -3.79894,-1.60304 -4.42371,-2.60912 -4.13614,-6.66051 0.0914,-1.28675 0.0616,-2.33362 -0.0663,-2.33362 -0.1276,0 -0.9895,0.33942 -1.91535,0.75428 -0.92584,0.41485 -2.01077,0.88855 -2.41095,1.05266 -0.65161,0.26721 -0.72761,0.43137 -0.72761,1.57138 0,1.60871 0.66195,4.22478 1.28751,5.08834 0.74052,1.02226 2.34307,1.78202 5.51309,2.61371 1.59744,0.4191 3.15234,0.89469 3.45535,1.05685 0.89831,0.48076 1.59512,1.56177 1.77482,2.75338 0.0926,0.61418 0.23125,1.44515 0.30805,1.8466 z m 13.81195,-12.34373 c 0.17478,-0.90728 -1.25629,-4.05334 -2.23441,-4.91214 -0.82071,-0.72058 -1.08701,-0.80148 -2.56042,-0.77808 -0.90444,0.0144 -2.29928,0.10675 -3.09965,0.20535 -3.12916,0.3853 -4.5643,-0.50198 -6.1849,-3.82386 -0.52696,-1.08015 -1.01201,-1.96391 -1.07781,-1.96391 -0.0658,0 -0.84568,1.02149 -1.73298,2.26999 l -1.61328,2.26999 0.652,1.11255 c 0.94323,1.60949 3.09043,3.51965 4.33235,3.85406 1.2126,0.32652 2.45318,0.13956 6.0215,-0.90743 2.96677,-0.8705 4.07808,-0.77855 5.34112,0.44193 0.50132,0.48443 1.16989,1.2975 1.4857,1.80683 0.47152,0.76043 0.59148,0.83639 0.67078,0.42472 z m -55.710148,-1.7265 c 0.35039,-0.41643 1.03263,-1.7384 1.516078,-2.93773 1.555,-3.8576 2.9018,-4.5907 7.40584,-4.0312 1.23693,0.15361 2.27969,0.25091 2.31719,0.21601 0.0375,-0.0349 -0.53718,-1.21337 -1.27713,-2.61892 l -1.34536,-2.55555 h -2.2371 c -2.39506,0 -3.73835,0.39053 -4.82131,1.40169 -0.889258,0.8303 -1.213708,1.56121 -2.020378,4.55143 -1.04139,3.86031 -1.49735,4.76617 -2.71061,5.38513 -0.56473,0.2881 -1.4975,0.60262 -2.07281,0.69882 -1.80037,0.30119 -1.90509,0.46563 -0.51686,0.8116 2.65417,0.66147 4.70678,0.33331 5.76245,-0.92128 z m 28.325328,-15.57371 2.86696,-2.89012 -1.25024,-0.17136 c -0.68763,-0.0943 -2.12659,-0.17137 -3.19768,-0.17137 -1.0711,0 -1.94745,-0.0721 -1.94745,-0.16031 0,-0.0882 0.75712,-1.42763 1.68249,-2.97657 0.92536,-1.54893 2.12316,-3.57901 2.66178,-4.51128 l 0.9793,-1.69503 -1.80189,1.61092 c -0.99104,0.886 -3.80633,3.62473 -6.25621,6.08607 l -4.45432,4.47516 2.04685,0.17302 c 1.12576,0.0951 2.56466,0.17302 3.19755,0.17302 0.63288,0 1.1507,0.0714 1.1507,0.15868 0,0.0873 -1.14934,2.08156 -2.5541,4.43177 -1.40476,2.3502 -2.6176,4.39216 -2.6952,4.53768 -0.21258,0.39866 6.30871,-5.78118 9.57146,-9.07028 z m 20.62796,4.26878 c 0.46572,-0.23972 2.00247,-1.53341 3.41502,-2.87484 2.49593,-2.3703 3.8753,-3.30409 4.88006,-3.30366 0.26905,1.1e-4 1.23332,0.35224 2.14282,0.78251 0.90951,0.43027 1.65365,0.67264 1.65365,0.53861 0,-0.44135 -3.11851,-2.84915 -4.11687,-3.17864 -1.25756,-0.41503 -2.46327,-0.062 -4.08521,1.19615 -4.08643,3.16984 -5.56633,3.29723 -8.9936,0.77422 -0.87436,-0.64367 -1.59885,-1.1408 -1.60995,-1.1047 -0.20321,0.65939 -0.64271,5.68093 -0.51045,5.83213 0.10117,0.11566 1.06563,0.55805 2.14324,0.98308 2.22253,0.87662 3.84757,0.9902 5.08129,0.35514 z m -52.875278,-4.05281 c 3.14657,-2.35294 4.16988,-2.92007 5.267288,-2.91707 1.35131,0.003 3.30135,0.89411 5.12145,2.33984 0.7597,0.60344 1.44435,1.09716 1.52135,1.09716 0.0771,0 0.14007,-1.35076 0.14007,-3.0017 0,-3.39543 -0.0278,-3.45138 -2.19274,-4.40902 -1.62603,-0.71927 -3.47958,-0.92416 -4.898408,-0.54146 -0.88439,0.23855 -1.78044,0.91977 -4.02045,3.05654 -3.4207,3.26304 -3.93646,3.46226 -6.57774,2.54071 -0.92513,-0.32278 -1.73451,-0.53441 -1.79861,-0.47031 -0.19131,0.19131 2.33979,2.25588 3.48066,2.83912 1.34986,0.69008 2.53406,0.53033 3.95713,-0.53381 z m 45.225888,-6.56399 2.26396,-0.10824 c 4.01361,-0.19189 5.30688,-1.39651 6.48124,-6.03698 0.91569,-3.61835 1.12444,-4.11754 2.04615,-4.8931 0.71501,-0.60165 1.49878,-0.89978 3.52563,-1.34108 l 0.79375,-0.17283 -0.66146,-0.2617 c -1.03084,-0.40787 -4.79431,-0.40001 -5.5167,0.0115 -0.39593,0.22554 -1.1284,1.43218 -2.01574,3.32065 -0.90189,1.91943 -1.6934,3.21845 -2.24265,3.68062 -0.81476,0.68555 -0.97134,0.71425 -3.89956,0.71425 -2.33549,0 -3.01937,0.0775 -2.917,0.33073 0.0735,0.1819 0.58566,1.32645 1.13804,2.54345 z m -32.22743,-1.64733 c 0.14277,0 2.28672,-3.33487 2.87377,-4.47009 0.42063,-0.81341 0.41402,-0.88714 -0.16386,-1.82679 -0.862,-1.40161 -2.57269,-3.20047 -3.49928,-3.67963 -1.14633,-0.59279 -3.17688,-0.48714 -6.13711,0.31932 -4.346208,1.18403 -5.563548,0.91271 -7.497858,-1.67113 -0.49958,-0.66735 -0.95313,-1.07902 -1.00783,-0.91484 -0.16185,0.48554 1.48699,4.18454 2.12362,4.76412 1.25838,1.1456 1.64635,1.21288 5.05941,0.87728 3.536278,-0.34771 4.084408,-0.24935 5.279408,0.94728 0.79979,0.80089 1.99737,3.00364 2.53476,4.6623 0.1768,0.5457 0.37257,0.99218 0.43497,0.99218 z m 25.37773,-7.44325 c 1.4733,0.93574 2.27751,1.29445 2.64584,1.18015 1.51366,-0.4697 3.85061,-2.55146 4.34939,-3.87443 0.46231,-1.22622 0.32081,-3.4236 -0.37509,-5.82501 -1.27284,-4.39231 -1.11883,-5.46734 1.01803,-7.10592 1.69794,-1.30201 1.72421,-1.35554 0.56392,-1.149 -1.51297,0.26932 -3.73196,1.37927 -4.36416,2.18298 -0.50043,0.63618 -0.53543,0.99821 -0.46953,4.85758 l 0.0712,4.17017 -0.76128,0.79831 c -0.41871,0.43906 -1.77338,1.29058 -3.01039,1.89225 -1.237,0.60167 -2.14458,1.19174 -2.01684,1.31126 0.12774,0.11951 1.18476,0.82226 2.34892,1.56166 z m -19.72644,0.12311 c 0.008,0.12131 0.10432,0.18031 0.21346,0.13131 2.03974,-0.91665 4.81048,-2.43646 4.90878,-2.69253 0.258,-0.67234 -0.32447,-4.73179 -0.81529,-5.68205 -0.77066,-1.49205 -2.21431,-2.32865 -5.49355,-3.18353 -4.7174,-1.22981 -5.26931,-1.70009 -5.74786,-4.89782 l -0.28248,-1.88753 -0.37764,0.91899 c -0.2077,0.50545 -0.43812,1.75561 -0.51212,2.77813 -0.11911,1.64661 -0.0627,1.96499 0.49341,2.78517 0.6202,0.91469 1.30656,1.33362 4.76528,2.90859 2.58114,1.17535 2.89948,1.79946 2.86218,5.61224 -0.0162,1.6437 -0.0222,3.08777 -0.0142,3.20903 z m 8.94468,-3.1765 c 0.25466,0.069 1.59412,0.1075 2.97657,0.0855 l 2.51354,-0.0399 0.61863,-1.29584 c 0.34025,-0.71271 0.74739,-1.98816 0.90475,-2.83434 0.46237,-2.48625 0.0602,-3.36335 -2.86649,-6.25192 -1.36228,-1.34452 -2.67541,-2.82852 -2.91806,-3.29777 -0.5898,-1.14055 -0.54462,-2.451 0.13854,-4.01851 0.31023,-0.71182 0.50152,-1.35676 0.42512,-1.43316 -0.24251,-0.2425 -1.95422,1.88025 -2.67738,3.32032 -0.91782,1.82772 -0.73662,2.73469 1.00532,5.03188 2.01655,2.65933 2.32487,3.25648 2.32587,4.50603 0.001,1.24277 -0.51133,2.39747 -1.9616,4.42038 -1.08487,1.51322 -1.11775,1.63579 -0.48481,1.80731 z"
       id="path1"
       sodipodi:nodetypes="cscssssssssssssssscsscscssssssssssssssssssccsscsscssscssssssscsscssssssssccssscssscssssssssccscsssscsssccsssscssccsssssssssssssssssscsssssssssscsssscssssssscssssscsssssssssssssscssssssccssscscsscsssccsssssssscsss" /></g></svg>
